<?xml version="1.0" encoding="UTF-8"?>
<svg version="1.1" xmlns="http://www.w3.org/2000/svg" width="725" height="378">
<path d="M0 0 C239.25 0 478.5 0 725 0 C725 124.74 725 249.48 725 378 C485.75 378 246.5 378 0 378 C0 253.26 0 128.52 0 0 Z " fill="#000000" transform="translate(0,0)"/>
<path d="M0 0 C3 1 3 1 5 4 C5 4.99 5 5.98 5 7 C5.66 7 6.32 7 7 7 C12.19964591 14.79946887 12.22769994 22.37466856 12.125 31.5 C12.06208042 39.76624037 12.06208042 39.76624037 14.98828125 47.27734375 C17.33090103 49.46738073 17.33090103 49.46738073 19.87109375 50.93359375 C25.15462776 56.06201484 24.44631111 66.50132196 25 73.5 C25.16254966 75.41939955 25.32663841 77.33866932 25.4921875 79.2578125 C25.6154541 80.68915527 25.6154541 80.68915527 25.74121094 82.14941406 C26.37330285 89.11196616 27.19412852 96.05578827 28 103 C28.94875 102.175 29.8975 101.35 30.875 100.5 C33.75 98 33.75 98 36 98 C36.93249759 103.22198651 37.02864879 106.89562832 35.55078125 111.97265625 C34.64770703 115.29673797 34.30081586 118.5706992 34 122 C34.33 122.33 34.66 122.66 35 123 C35.55148358 130.81621913 35.71803278 137.97704919 32 145 C31.01 145.33 30.02 145.66 29 146 C28.99701904 146.66531738 28.99403809 147.33063477 28.9909668 148.01611328 C28.70686226 167.09929849 28.70686226 167.09929849 24.5234375 171.7578125 C21.70682795 173.17726481 19.00969202 174.08770108 16 175 C14.08083879 176.07540859 14.08083879 176.07540859 13 178 C12.49138607 181.2553075 12.49138607 181.2553075 12.4375 184.875 C12.20426599 191.5327709 12.20426599 191.5327709 10.98046875 194.33203125 C9.47106586 198.43929089 9.7909441 202.47715523 9.875 206.8125 C9.88402344 207.69615234 9.89304687 208.57980469 9.90234375 209.49023438 C9.92580363 211.66027359 9.96167135 213.83017247 10 216 C9.01 216.33 8.02 216.66 7 217 C7.495 217.598125 7.99 218.19625 8.5 218.8125 C10 221 10 221 10 224 C6.53004599 222.84334866 6.11443335 221.81924446 4 219 C3.01 218.67 2.02 218.34 1 218 C1 219.98 1 221.96 1 224 C0.01 224 -0.98 224 -2 224 C-2 219.38 -2 214.76 -2 210 C-0.68 210 0.64 210 2 210 C2 204.06 2 198.12 2 192 C1.34 192 0.68 192 0 192 C-0.66 196.29 -1.32 200.58 -2 205 C-3.32 205.33 -4.64 205.66 -6 206 C-7.97360238 199.96777983 -8.37888312 194.45022673 -8.56640625 188.140625 C-8.8986489 180.08012944 -11.38482936 175.55165061 -17 170 C-19.27417853 168.23171016 -21.62289394 166.6313473 -24 165 C-25.6498007 161.70039859 -25.38258361 158.00872116 -25.5625 154.375 C-25.60568359 153.57320312 -25.64886719 152.77140625 -25.69335938 151.9453125 C-25.79951457 149.9637489 -25.90026855 147.98189729 -26 146 C-26.78375 145.835 -27.5675 145.67 -28.375 145.5 C-31 144 -31 144 -32.3125 140.4609375 C-33.20524097 135.83662273 -33.14365151 131.31399326 -33 126.625 C-32.89607092 120.50558478 -33.08004899 114.92602433 -34.55078125 108.94921875 C-35.35799136 105.44662881 -35.61873701 102.23747401 -34 99 C-31.04049858 100.37405423 -28.58504604 102.01776932 -26 104 C-25.70444508 101.33371736 -25.41320454 98.66708187 -25.125 96 C-25.03331543 95.16218994 -24.94163086 94.32437988 -24.84716797 93.46118164 C-24.32577143 88.55978584 -23.8908431 83.66439979 -23.5625 78.74609375 C-23.45204346 77.17311523 -23.45204346 77.17311523 -23.33935547 75.56835938 C-23.19981078 73.53018047 -23.07315959 71.4910644 -22.96142578 69.45117188 C-22.45592946 62.26997231 -21.50579558 54.52729766 -16.20874023 49.19775391 C-15.57911377 48.6516748 -14.9494873 48.1055957 -14.30078125 47.54296875 C-11.27604473 44.78139319 -10.48766385 43.0144345 -10.16796875 38.92578125 C-10.1435997 37.05483487 -10.15122279 35.18325337 -10.1875 33.3125 C-10.15816079 31.34758365 -10.12434364 29.3827288 -10.0859375 27.41796875 C-10.07530273 26.48130371 -10.06466797 25.54463867 -10.05371094 24.57958984 C-9.83224564 13.94321559 -7.48505131 7.48505131 0 0 Z " fill="#151515" transform="translate(463,59)"/>
<path d="M0 0 C5.39332867 3.63683749 10.11663471 8.73537097 12.6875 14.75 C13.25 18.125 13.25 18.125 12.6875 21.75 C8.51943527 26.72153753 2.97577763 29.30826564 -2.9375 31.625 C-3.74566162 31.95306641 -4.55382324 32.28113281 -5.38647461 32.61914062 C-8.02171496 33.6807912 -10.66550877 34.71801804 -13.3125 35.75 C-14.26882324 36.12543945 -15.22514648 36.50087891 -16.21044922 36.88769531 C-20.86202562 38.70817949 -25.52030706 40.51142143 -30.19140625 42.28125 C-30.9397876 42.56548828 -31.68816895 42.84972656 -32.45922852 43.14257812 C-34.3125 43.75 -34.3125 43.75 -36.3125 43.75 C-32.12281143 50.31741326 -32.12281143 50.31741326 -25.3125 53.75 C-18.57696413 54.45345022 -11.97675705 54.70588395 -6.015625 51.13671875 C-0.68923598 46.79986531 2.43264389 40.70137377 5.4140625 34.6328125 C6.94722071 32.36599575 8.14252554 31.69775041 10.6875 30.75 C14.9944986 30.20183654 16.96797721 30.27542114 20.625 32.6875 C22.99385137 36.20488537 23.48698975 38.11842321 23.23046875 42.28515625 C21.14206256 51.7656189 13.99534564 58.15659716 6.29296875 63.37109375 C-5.64567116 70.54859691 -20.18234887 73.59404871 -33.953125 71.3125 C-46.28456116 68.21025191 -55.10874161 60.33779759 -61.5859375 49.6484375 C-62.61134327 47.71327323 -63.48489868 45.77702353 -64.3125 43.75 C-64.61027344 43.06550781 -64.90804688 42.38101563 -65.21484375 41.67578125 C-68.039005 34.42666688 -68.70370631 27.10365738 -66.31640625 19.6328125 C-61.14988505 8.12888711 -52.82748686 1.89789587 -41.48828125 -3.05859375 C-27.20707517 -8.41624179 -13.31539233 -7.52498226 0 0 Z " fill="#F8F8F8" transform="translate(414.3125,185.25)"/>
<path d="M0 0 C3 1 3 1 5 4 C5 4.99 5 5.98 5 7 C5.66 7 6.32 7 7 7 C12.19964591 14.79946887 12.22769994 22.37466856 12.125 31.5 C12.06208042 39.76624037 12.06208042 39.76624037 14.98828125 47.27734375 C17.33090103 49.46738073 17.33090103 49.46738073 19.87109375 50.93359375 C26.43329331 57.30314158 25.09185326 73.36052224 25.7578125 82.03808594 C25.99842667 84.98075838 26.29362027 87.91443771 26.59375 90.8515625 C26.75221737 92.71335426 26.90854819 94.57532941 27.0625 96.4375 C27.16119385 97.29448486 27.2598877 98.15146973 27.36157227 99.03442383 C27.62610322 102.7858523 27.700922 105.03871682 25.43310547 108.14892578 C23.69677988 109.89575599 21.93943763 111.48418534 20 113 C16.99382731 109.99382731 17.40414684 107.17618402 17 103 C16.34 103 15.68 103 15 103 C14.96003906 104.12277344 14.92007813 105.24554688 14.87890625 106.40234375 C14.06024313 120.01128907 14.06024313 120.01128907 8.8125 125.5 C6.00721749 127.79359898 3.72814734 129.11717787 0.375 130.5625 C-4.86673891 129.68887685 -6.96922712 126.12664556 -10 122 C-10.495 121.505 -10.495 121.505 -11 121 C-11.39993686 118.31137336 -11.75134543 115.63647783 -12.0625 112.9375 C-12.15337891 112.17888672 -12.24425781 111.42027344 -12.33789062 110.63867188 C-12.5624374 108.7595699 -12.78170978 106.87983905 -13 105 C-15.76223278 107.76223278 -15.57856291 110.20706617 -16 114 C-18.49361571 112.79618552 -20.68143083 111.54571278 -23 110 C-21.35 111.98 -19.7 113.96 -18 116 C-21.90478455 114.38071731 -24.56172556 111.80673954 -27.625 108.9375 C-31.04209753 105.58466353 -31.04209753 105.58466353 -35 103 C-34.67 101.68 -34.34 100.36 -34 99 C-31.04049858 100.37405423 -28.58504604 102.01776932 -26 104 C-25.70444508 101.33371736 -25.41320454 98.66708187 -25.125 96 C-25.03331543 95.16218994 -24.94163086 94.32437988 -24.84716797 93.46118164 C-24.32577143 88.55978584 -23.8908431 83.66439979 -23.5625 78.74609375 C-23.45204346 77.17311523 -23.45204346 77.17311523 -23.33935547 75.56835938 C-23.19981078 73.53018047 -23.07315959 71.4910644 -22.96142578 69.45117188 C-22.45592946 62.26997231 -21.50579558 54.52729766 -16.20874023 49.19775391 C-15.57911377 48.6516748 -14.9494873 48.1055957 -14.30078125 47.54296875 C-11.27604473 44.78139319 -10.48766385 43.0144345 -10.16796875 38.92578125 C-10.1435997 37.05483487 -10.15122279 35.18325337 -10.1875 33.3125 C-10.15816079 31.34758365 -10.12434364 29.3827288 -10.0859375 27.41796875 C-10.07530273 26.48130371 -10.06466797 25.54463867 -10.05371094 24.57958984 C-9.83224564 13.94321559 -7.48505131 7.48505131 0 0 Z " fill="#C4C4C4" transform="translate(463,59)"/>
<path d="M0 0 C3.5625 0.4375 3.5625 0.4375 5.3125 2.375 C8.26441973 9.60720334 10.19735512 16.74450707 11.5625 24.4375 C12.2225 24.4375 12.8825 24.4375 13.5625 24.4375 C13.66046875 23.84324219 13.7584375 23.24898437 13.859375 22.63671875 C17.10867788 4.62549674 17.10867788 4.62549674 22.5625 0.4375 C25.9375 -0.0625 25.9375 -0.0625 29.5625 0.4375 C34.29210861 4.19656105 35.80913579 7.8988267 37.375 13.5 C37.69887695 14.56057617 37.69887695 14.56057617 38.02929688 15.64257812 C39.04397895 19.07316989 39.5625 21.83214393 39.5625 25.4375 C40.2225 25.4375 40.8825 25.4375 41.5625 25.4375 C41.66046875 24.78265625 41.7584375 24.1278125 41.859375 23.453125 C43.0355068 16.27466541 44.55845977 9.09770308 47.5625 2.4375 C50.5625 0.4375 50.5625 0.4375 54.1875 0.75 C57.5625 1.4375 57.5625 1.4375 58.5625 2.4375 C59.11631496 7.75412363 58.08228521 11.02166452 55.765625 15.77734375 C54.31965644 18.97443657 53.23972222 22.23597136 52.125 25.5625 C47.83879423 37.79935288 47.83879423 37.79935288 42.5625 40.4375 C37.15966347 40.89731587 37.15966347 40.89731587 35 39.234375 C29.88561048 32.8413881 28.71980822 23.31024144 27.5625 15.4375 C26.9025 15.4375 26.2425 15.4375 25.5625 15.4375 C25.37300781 16.71947266 25.37300781 16.71947266 25.1796875 18.02734375 C24.56006518 21.45095317 23.70095276 24.67288958 22.6875 28 C22.36007812 29.09441406 22.03265625 30.18882812 21.6953125 31.31640625 C19.01051223 38.71349388 19.01051223 38.71349388 15.5625 40.4375 C12.23051439 40.79967235 10.28993347 40.90819225 7.4375 39.0625 C5.17466 35.894524 3.92253253 32.71196192 2.5625 29.078125 C1.64904515 26.66603329 0.64077833 24.34188575 -0.4375 22 C-1.96714186 18.57506484 -3.3993219 15.12469514 -4.75 11.625 C-5.27013672 10.28501953 -5.27013672 10.28501953 -5.80078125 8.91796875 C-6.48837266 6.23931511 -6.46788506 4.97764712 -5.4375 2.4375 C-3.4375 0.4375 -3.4375 0.4375 0 0 Z " fill="#F2F2F2" transform="translate(573.4375,192.5625)"/>
<path d="M0 0 C0.93249759 5.22198651 1.02864879 8.89562832 -0.44921875 13.97265625 C-1.35229297 17.29673797 -1.69918414 20.5706992 -2 24 C-1.67 24.33 -1.34 24.66 -1 25 C-0.45209882 32.76544557 -0.19048511 40.06124074 -4 47 C-6.109375 47.69921875 -6.109375 47.69921875 -8 48 C-8 47.34 -8 46.68 -8 46 C-8.66 46 -9.32 46 -10 46 C-10.09087891 47.2684375 -10.09087891 47.2684375 -10.18359375 48.5625 C-10.35667458 50.90574816 -10.54072485 53.24820575 -10.734375 55.58984375 C-10.88772303 57.55856185 -11.01654244 59.53018535 -11.078125 61.50390625 C-11.1875 63.5625 -11.1875 63.5625 -12 67 C-15.14773447 69.73716041 -16.80043283 71 -21 71 C-21 71.66 -21 72.32 -21 73 C-22.53125 74.2890625 -22.53125 74.2890625 -24.5 75.625 C-25.47453125 76.29402344 -25.47453125 76.29402344 -26.46875 76.9765625 C-27.22671875 77.48316406 -27.22671875 77.48316406 -28 78 C-28.08131463 76.56344146 -28.13933559 75.1255517 -28.1875 73.6875 C-28.22230469 72.88699219 -28.25710938 72.08648437 -28.29296875 71.26171875 C-27.93014959 68.46075483 -26.98738101 67.90626342 -25 66 C-24.42982192 63.95899762 -24.42982192 63.95899762 -24.3125 61.8125 C-24.1578125 59.9253125 -24.1578125 59.9253125 -24 58 C-24.99 57.67 -25.98 57.34 -27 57 C-26.01 55.68 -25.02 54.36 -24 53 C-24.66 53 -25.32 53 -26 53 C-26.825 53.825 -27.65 54.65 -28.5 55.5 C-29.325 56.325 -30.15 57.15 -31 58 C-31.66 58 -32.32 58 -33 58 C-33.625 55.125 -33.625 55.125 -34 52 C-33.34 51.34 -32.68 50.68 -32 50 C-32.495 48.515 -32.495 48.515 -33 47 C-34.14454322 43.29454133 -34.2824021 40.69662119 -33 37 C-29.06498226 32.5015356 -24.16250558 28.91839355 -19.37695312 25.37524414 C-18.92255859 24.92141357 -18.46816406 24.46758301 -18 24 C-18 23.01 -18 22.02 -18 21 C-18.73605469 21.67546875 -19.47210938 22.3509375 -20.23046875 23.046875 C-21.21607173 23.94799772 -22.20175299 24.84903483 -23.1875 25.75 C-24.15042969 26.63171875 -25.11335938 27.5134375 -26.10546875 28.421875 C-33.52079867 35.0266223 -33.52079867 35.0266223 -36.25 34.875 C-38 34 -38 34 -39 32 C-37.824375 31.649375 -36.64875 31.29875 -35.4375 30.9375 C-30.53073054 29.04289329 -26.80052058 26.52832713 -24 22 C-23.38065335 19.15513438 -23.1894812 16.50941768 -23.109375 13.6015625 C-22.97819018 10.48123786 -22.16917115 7.8839555 -21 5 C-20.34 5 -19.68 5 -19 5 C-18.01 7.97 -17.02 10.94 -16 14 C-10.75881979 9.461934 -10.75881979 9.461934 -9 3 C-8.67 3.66 -8.34 4.32 -8 5 C-6.576875 3.7625 -6.576875 3.7625 -5.125 2.5 C-2.25 0 -2.25 0 0 0 Z " fill="#171717" transform="translate(499,157)"/>
<path d="M0 0 C3 1 3 1 5 4 C5 4.99 5 5.98 5 7 C5.66 7 6.32 7 7 7 C12.16696652 14.75044978 12.47679633 22.83885344 12.625 31.9375 C12.6758432 34.17587187 12.73033866 36.41416476 12.7890625 38.65234375 C12.80662598 39.63195068 12.82418945 40.61155762 12.84228516 41.62084961 C12.84693026 44.01642062 12.84693026 44.01642062 14 46 C13.34 46 12.68 46 12 46 C11.96261719 46.76183594 11.92523438 47.52367187 11.88671875 48.30859375 C11.51641862 54.12448396 10.86863899 59.24814172 8.8203125 64.70703125 C7.8730939 67.35473278 7.19130746 70.0247932 6.5 72.75 C5.48221879 76.58956615 4.35882856 79.74257008 2 83 C-0.36319349 82.0547226 -1.73002108 81.41996722 -3.125 79.25 C-5.65411158 72.74657021 -7.21279095 66.15584107 -8.60546875 59.33398438 C-9.42180887 55.3654738 -10.32341667 51.71667368 -12 48 C-12.99 48.99 -13.98 49.98 -15 51 C-15.66 50.67 -16.32 50.34 -17 50 C-16.02546875 49.22914062 -15.0509375 48.45828125 -14.046875 47.6640625 C-10.49945532 44.10622149 -10.30064995 41.14478793 -10.2199707 36.25830078 C-10.22988037 35.30681152 -10.23979004 34.35532227 -10.25 33.375 C-10.21158233 31.40094785 -10.16865057 29.42697813 -10.12109375 27.453125 C-10.1041748 26.51017578 -10.08725586 25.56722656 -10.06982422 24.59570312 C-9.78333141 13.94538304 -7.50821978 7.50821978 0 0 Z " fill="#C1C1C1" transform="translate(463,59)"/>
<path d="M0 0 C5.07488299 2.35214398 8.69069692 4.78845124 10.93359375 10.08984375 C11.43184285 13.18004829 11.72291614 16.04282718 10.93359375 19.08984375 C8.64262395 21.3205961 7.29503197 22.04651217 4.09277344 22.43041992 C3.02446289 22.41470947 1.95615234 22.39899902 0.85546875 22.3828125 C-0.3046875 22.37314453 -1.46484375 22.36347656 -2.66015625 22.35351562 C-3.86671875 22.32837891 -5.07328125 22.30324219 -6.31640625 22.27734375 C-8.14945313 22.25704102 -8.14945313 22.25704102 -10.01953125 22.23632812 C-13.03560123 22.20098355 -16.05078112 22.15163935 -19.06640625 22.08984375 C-17.04007556 26.41356268 -17.04007556 26.41356268 -14.06640625 30.08984375 C-9.99620105 30.79673496 -5.75973276 31.05409912 -2.09765625 28.96875 C-0.96630537 28.06109804 0.15396987 27.13943655 1.26171875 26.203125 C4.0368406 24.35520508 6.73598848 24.7635575 9.93359375 25.08984375 C10.74609375 27.27734375 10.74609375 27.27734375 10.93359375 30.08984375 C7.40040164 34.91853963 2.58822123 37.46173119 -3.06640625 39.08984375 C-11.39503378 40.16992513 -19.60224927 38.93140288 -26.44140625 33.83984375 C-31.23077963 28.82240497 -32.24435744 24.79235801 -32.50390625 18.02734375 C-32.33276263 12.05964013 -30.96879836 8.86030895 -26.60546875 4.6953125 C-18.97049755 -2.02888802 -9.66941537 -2.8700303 0 0 Z " fill="#F4F4F4" transform="translate(553.06640625,193.91015625)"/>
<path d="M0 0 C0.66 0 1.32 0 2 0 C2.05428973 2.22889496 2.09292338 4.45817471 2.125 6.6875 C2.14820313 7.92886719 2.17140625 9.17023438 2.1953125 10.44921875 C2 14 2 14 1 16.34375 C-0.54257718 20.44122064 -0.2090681 24.47652611 -0.125 28.8125 C-0.11597656 29.69615234 -0.10695313 30.57980469 -0.09765625 31.49023438 C-0.07419637 33.66027359 -0.03832865 35.83017247 0 38 C-1.485 38.495 -1.485 38.495 -3 39 C-2.505 39.598125 -2.01 40.19625 -1.5 40.8125 C0 43 0 43 0 46 C-3.46995401 44.84334866 -3.88556665 43.81924446 -6 41 C-6.99 40.67 -7.98 40.34 -9 40 C-9 41.98 -9 43.96 -9 46 C-9.99 46 -10.98 46 -12 46 C-12 41.38 -12 36.76 -12 32 C-10.68 32 -9.36 32 -8 32 C-8 26.06 -8 20.12 -8 14 C-8.66 14 -9.32 14 -10 14 C-10.66 18.29 -11.32 22.58 -12 27 C-13.32 27.33 -14.64 27.66 -16 28 C-18.06189931 22.08218663 -18.24167838 16.79581786 -18.125 10.5625 C-18.11597656 9.64017578 -18.10695313 8.71785156 -18.09765625 7.76757812 C-18.0742766 5.51144191 -18.04150916 3.25586316 -18 1 C-13.2109375 5.7109375 -13.2109375 5.7109375 -11.3125 8.3125 C-10.879375 8.869375 -10.44625 9.42625 -10 10 C-9.34 10 -8.68 10 -8 10 C-6.22189039 8.01727069 -6.22189039 8.01727069 -4.4375 5.5625 C-1.01265823 1.01265823 -1.01265823 1.01265823 0 0 Z " fill="#A8A8A8" transform="translate(473,237)"/>
<path d="M0 0 C3.5 0.4375 3.5 0.4375 5.19165039 1.48828125 C7.20255625 4.48418952 6.94784191 7.57372995 6.93359375 11.0625 C6.9388356 11.80580566 6.94407745 12.54911133 6.94947815 13.31494141 C6.95589608 14.88507845 6.95456424 16.45526358 6.94604492 18.02539062 C6.93752921 20.42925436 6.96630361 22.8307458 6.99804688 25.234375 C6.99965886 26.76041595 6.9990814 28.28646112 6.99609375 29.8125 C7.01294472 30.89072021 7.01294472 30.89072021 7.03013611 31.99072266 C6.98500028 35.21821309 6.90969335 36.98695372 4.69555664 39.421875 C1.35717501 40.96615028 -1.0126618 40.34162472 -4.5 39.4375 C-7.80039909 34.48690136 -6.83277408 28.55728681 -6.81567383 22.7590332 C-6.812516 20.51138737 -6.83597039 18.26506104 -6.86132812 16.01757812 C-6.86360147 14.58593916 -6.86430445 13.15429666 -6.86328125 11.72265625 C-6.86626221 10.42207275 -6.86924316 9.12148926 -6.87231445 7.78149414 C-6.30029235 2.64379792 -5.22094677 0.65261835 0 0 Z " fill="#F1F1F1" transform="translate(506.5,192.5625)"/>
<path d="M0 0 C2.92592996 2.02028497 5.28838348 4.13226341 7.625 6.8125 C7.625 7.4725 7.625 8.1325 7.625 8.8125 C6.60921875 9.18761719 5.5934375 9.56273437 4.546875 9.94921875 C3.15612587 10.46581178 1.76551035 10.98276458 0.375 11.5 C-0.34921143 11.76820557 -1.07342285 12.03641113 -1.81958008 12.31274414 C-7.25366434 14.34326532 -12.55751596 16.59140059 -17.82421875 19.02734375 C-20.75919114 19.93075792 -22.45848742 19.6585514 -25.375 18.8125 C-25.72546991 13.88645065 -25.91697029 9.98315583 -23.8125 5.4375 C-17.11346908 -1.77684099 -9.28980097 -3.26863368 0 0 Z " fill="#090909" transform="translate(395.375,197.1875)"/>
<path d="M0 0 C0.66 0.33 1.32 0.66 2 1 C2.17880383 2.91114913 2.26803583 4.83101987 2.3125 6.75 C2.61083985 11.85586916 2.61083985 11.85586916 5.5 16.0625 C6.325 16.701875 7.15 17.34125 8 18 C8.96088383 20.88265149 9.11670941 22.67662271 9.09765625 25.66796875 C9.09443359 26.56064453 9.09121094 27.45332031 9.08789062 28.37304688 C9.07951172 29.30181641 9.07113281 30.23058594 9.0625 31.1875 C9.05798828 32.12787109 9.05347656 33.06824219 9.04882812 34.03710938 C9.03704626 36.35813712 9.02059558 38.67903644 9 41 C4.125 36.375 4.125 36.375 3 33 C2.34 33 1.68 33 1 33 C1 32.34 1 31.68 1 31 C0.38125 30.731875 -0.2375 30.46375 -0.875 30.1875 C-3 29 -3 29 -5 26 C-5.63240729 22.36067504 -5.79360063 18.68570304 -6 15 C-6.05414063 14.13632813 -6.10828125 13.27265625 -6.1640625 12.3828125 C-6.19242187 11.59648437 -6.22078125 10.81015625 -6.25 10 C-6.27578125 9.29875 -6.3015625 8.5975 -6.328125 7.875 C-5.89155832 5.38033327 -4.96906486 4.54580793 -3 3 C-2.01 2.67 -1.02 2.34 0 2 C0 1.34 0 0.68 0 0 Z " fill="#313131" transform="translate(453,200)"/>
<path d="M0 0 C0.66 0 1.32 0 2 0 C4.09567823 7.63652445 3.50290192 17.51674748 1 25 C-2.30858558 28.38674115 -5.60317439 29.49083698 -10 31 C-11.68806962 32.46865199 -11.68806962 32.46865199 -13 34 C-13.78375 34.45375 -14.5675 34.9075 -15.375 35.375 C-18.37521012 37.23227293 -20.58256157 39.44442223 -23 42 C-23 39.49050511 -22.98489036 36.98203506 -22.96484375 34.47265625 C-22.9555411 32.66927179 -22.94643397 30.86588632 -22.9375 29.0625 C-22.92912109 28.15564453 -22.92074219 27.24878906 -22.91210938 26.31445312 C-22.90727539 25.00057617 -22.90727539 25.00057617 -22.90234375 23.66015625 C-22.89710693 22.86230713 -22.89187012 22.06445801 -22.88647461 21.24243164 C-22.9983398 19.03279342 -23.38710639 17.12043618 -24 15 C-22.73742767 13.82439821 -21.46462916 12.65977135 -20.1875 11.5 C-19.47980469 10.8503125 -18.77210938 10.200625 -18.04296875 9.53125 C-16 8 -16 8 -13 8 C-13.99 8.99 -14.98 9.98 -16 11 C-15.34 11.33 -14.68 11.66 -14 12 C-13.734375 17.40104167 -13.734375 17.40104167 -14 20 C-15 21 -16 22 -17 23 C-17.27758989 25.71602655 -17.13476701 28.25973746 -17 31 C-16.071875 30.01 -16.071875 30.01 -15.125 29 C-13 27 -13 27 -11 27 C-11 26.34 -11 25.68 -11 25 C-9.3603125 24.443125 -9.3603125 24.443125 -7.6875 23.875 C-4.69083897 22.1980806 -4.05776795 21.16508065 -2.90234375 17.86328125 C-2.13780834 14.24806605 -1.51532951 10.65883949 -1 7 C-0.81179688 5.69675781 -0.62359375 4.39351562 -0.4296875 3.05078125 C-0.21699219 1.54064453 -0.21699219 1.54064453 0 0 Z " fill="#101010" transform="translate(489,203)"/>
<path d="M0 0 C1.24967702 3.66811672 0.85729628 6.69950115 0.3125 10.5 C0.16425781 11.6240625 0.01601563 12.748125 -0.13671875 13.90625 C-1.1003995 17.35980273 -2.27701325 18.73731447 -5 21 C-4.67 21.66 -4.34 22.32 -4 23 C-4.28241883 25.3400417 -4.61250787 27.67504723 -5 30 C-5.99 30.33 -6.98 30.66 -8 31 C-7.814375 32.051875 -7.62875 33.10375 -7.4375 34.1875 C-6.76328502 40.06280193 -6.76328502 40.06280193 -8 43 C-10.19113894 44.90739433 -12.52660453 46.48238137 -15 48 C-15.08131463 46.56344146 -15.13933559 45.1255517 -15.1875 43.6875 C-15.22230469 42.88699219 -15.25710938 42.08648437 -15.29296875 41.26171875 C-14.93014959 38.46075483 -13.98738101 37.90626342 -12 36 C-11.42982192 33.95899762 -11.42982192 33.95899762 -11.3125 31.8125 C-11.1578125 29.9253125 -11.1578125 29.9253125 -11 28 C-11.99 27.67 -12.98 27.34 -14 27 C-13.01 25.68 -12.02 24.36 -11 23 C-11.66 23 -12.32 23 -13 23 C-14.2375 24.2375 -14.2375 24.2375 -15.5 25.5 C-16.7375 26.7375 -16.7375 26.7375 -18 28 C-18.66 28 -19.32 28 -20 28 C-20.33 26.02 -20.66 24.04 -21 22 C-17.7 19.36 -14.4 16.72 -11 14 C-10.34 14.33 -9.68 14.66 -9 15 C-9.020625 14.41992188 -9.04125 13.83984375 -9.0625 13.2421875 C-8.96146774 9.41559055 -8.87645769 6.91722317 -6.15234375 4.06640625 C-4.1517503 2.59507033 -2.14676477 1.24698181 0 0 Z " fill="#3A3A3A" transform="translate(486,187)"/>
<path d="M0 0 C0.99 0.66 1.98 1.32 3 2 C4.0153346 9.5851467 3.71442017 17.23444898 0 24 C-2.109375 24.69921875 -2.109375 24.69921875 -4 25 C-4 24.34 -4 23.68 -4 23 C-4.66 23 -5.32 23 -6 23 C-6.06058594 23.845625 -6.12117188 24.69125 -6.18359375 25.5625 C-6.35667458 27.90574816 -6.54072485 30.24820575 -6.734375 32.58984375 C-6.88772303 34.55856185 -7.01654244 36.53018535 -7.078125 38.50390625 C-7.1875 40.5625 -7.1875 40.5625 -8 44 C-11.14773447 46.73716041 -12.80043283 48 -17 48 C-17.05395478 46.37536158 -17.09277195 44.75021459 -17.125 43.125 C-17.15980469 41.76761719 -17.15980469 41.76761719 -17.1953125 40.3828125 C-17 38 -17 38 -15 36 C-14.59952556 33.67724823 -14.2602896 31.34260643 -14 29 C-14.66 28.67 -15.32 28.34 -16 28 C-14.19489116 25.90987397 -12.9974669 24.99903501 -10.375 24 C-9.59125 23.67 -8.8075 23.34 -8 23 C-6.78408463 19.90432805 -6.78408463 19.90432805 -7.0625 16.0625 C-7.09223001 12.81003699 -6.94244482 10.71942275 -5 8 C-4.319375 7.34 -3.63875 6.68 -2.9375 6 C-0.92392778 3.92147384 -0.40175906 2.81231342 0 0 Z " fill="#3E3E3E" transform="translate(495,180)"/>
<path d="M0 0 C2 1 2 1 2.875 2.8125 C4.2008317 5.39050609 5.92749664 6.99435159 8 9 C9 11 9 11 8.6875 14.8125 C8.57428064 16.97681892 8.57428064 16.97681892 9 19 C10.47817615 20.22110203 11.96435376 21.43801126 13.53125 22.54296875 C17.65617392 26.63498105 17.09418965 34.19467638 17.125 39.625 C17.09358421 41.08359017 17.05583292 42.5421403 17 44 C13.5849771 42.54545321 12.19775384 41.91341964 10 39 C8.47699581 33.50253251 8.30629657 27.66961209 8 22 C6.02 22.33 4.04 22.66 2 23 C-1.09460412 15.2082289 -2.12213611 8.22327744 0 0 Z " fill="#C0C0C0" transform="translate(431,181)"/>
<path d="M0 0 C3.83412335 1.50626274 5.72845467 3.59268201 8 7 C8.85829481 9.32414661 9.43046974 11.57949641 10 14 C10 13.34 10 12.68 10 12 C11.609375 11.21484375 11.609375 11.21484375 14 11 C18.65513536 13.80393516 23.06453441 17.36247937 26 22 C26.98284598 26.84543068 26.76707123 31.13477969 26 36 C23.18763584 34.32579888 20.99139118 32.61370092 19 30 C18.10175552 25.98852183 17.95353793 22.10193732 18 18 C17.38125 18.639375 16.7625 19.27875 16.125 19.9375 C14 22 14 22 12 23 C10.86649466 25.01669827 10.86649466 25.01669827 10 27 C9.773125 26.113125 9.54625 25.22625 9.3125 24.3125 C8.21523836 20.84903188 8.21523836 20.84903188 5.375 18.5625 C3 16 3 16 2.8125 12.4375 C2.874375 11.303125 2.93625 10.16875 3 9 C1.91146131 5.98558516 0.35900131 4.14454665 -2 2 C-1.34 1.34 -0.68 0.68 0 0 Z " fill="#3A3A3A" transform="translate(436,183)"/>
<path d="M0 0 C3.86236756 1.5979062 6.58230207 4.22135536 9.5625 7.0625 C14.4544225 11.64559476 19.4833005 15.93967029 24.72265625 20.125 C28.69836016 23.39830682 28.69836016 23.39830682 30 25 C30.1875 28.6875 30.1875 28.6875 30 32 C27.19133952 30.70157384 24.96681184 29.28187691 22.64453125 27.2421875 C22.02602295 26.70303711 21.40751465 26.16388672 20.77026367 25.60839844 C20.12420166 25.03637695 19.47813965 24.46435547 18.8125 23.875 C17.47153817 22.68989593 16.13039285 21.50499946 14.7890625 20.3203125 C13.81694824 19.46034668 13.81694824 19.46034668 12.82519531 18.58300781 C11.27910718 17.24207209 9.68697655 15.95450948 8.0859375 14.6796875 C3.2043274 10.75213801 0.98392648 7.99363549 0.12109375 1.6875 C0.06115234 0.8521875 0.06115234 0.8521875 0 0 Z " fill="#BCBCBC" transform="translate(432,170)"/>
<path d="M0 0 C0.90730396 2.44972068 1.04149224 3.82487414 0.43359375 6.390625 C-1.45504683 9.82825962 -4.03503403 12.1849718 -6.9375 14.75 C-7.51290527 15.26933105 -8.08831055 15.78866211 -8.68115234 16.32373047 C-14.84650946 21.84492049 -21.10801976 27.40534651 -28 32 C-28.79617542 25.13205686 -28.79617542 25.13205686 -26.80322266 22.29833984 C-25.04719835 20.6403115 -23.22861356 19.15765969 -21.3125 17.6875 C-20.6414624 17.14134033 -19.9704248 16.59518066 -19.27905273 16.0324707 C-17.88929853 14.90193679 -16.49212551 13.78046508 -15.08789062 12.66796875 C-11.85000245 10.08129288 -8.71218004 7.38019026 -5.5625 4.6875 C-3.71059055 3.12230007 -1.85528851 1.56119556 0 0 Z " fill="#BEBEBE" transform="translate(494,170)"/>
<path d="M0 0 C3.6875 0.3125 3.6875 0.3125 6.125 1.8125 C7.91972497 4.68405995 8.31525813 6.95692219 8.14453125 10.33984375 C7.35253153 13.75830409 5.44281566 15.30863406 2.6875 17.3125 C1.3675 17.3125 0.0475 17.3125 -1.3125 17.3125 C-1.3125 20.9425 -1.3125 24.5725 -1.3125 28.3125 C-2.3025 27.9825 -3.2925 27.6525 -4.3125 27.3125 C-4.34136537 23.00001391 -4.35925255 18.68755238 -4.375 14.375 C-4.38337891 13.14330078 -4.39175781 11.91160156 -4.40039062 10.64257812 C-4.40361328 9.47275391 -4.40683594 8.30292969 -4.41015625 7.09765625 C-4.41539307 6.01363525 -4.42062988 4.92961426 -4.42602539 3.81274414 C-4.25329264 0.00853748 -3.90453941 0.36835277 0 0 Z " fill="#C4C4C4" transform="translate(324.3125,268.6875)"/>
<path d="M0 0 C0.495 1.98 0.495 1.98 1 4 C-0.61949042 5.50594681 -2.24575974 7.00460668 -3.875 8.5 C-4.77992188 9.3353125 -5.68484375 10.170625 -6.6171875 11.03125 C-9 13 -9 13 -11 13 C-11.39288208 13.89428711 -11.39288208 13.89428711 -11.79370117 14.80664062 C-13.06904392 17.12553949 -14.29488523 18.38866945 -16.30078125 20.09375 C-16.94853516 20.64933594 -17.59628906 21.20492187 -18.26367188 21.77734375 C-18.93978516 22.34582031 -19.61589844 22.91429687 -20.3125 23.5 C-20.97701172 24.06847656 -21.64152344 24.63695312 -22.32617188 25.22265625 C-24.20780554 26.82697694 -26.10216519 28.41490918 -28 30 C-28.93714844 30.79664063 -29.87429688 31.59328125 -30.83984375 32.4140625 C-33 34 -33 34 -35.25 33.875 C-37 33 -37 33 -38 31 C-36.824375 30.649375 -35.64875 30.29875 -34.4375 29.9375 C-29.53073054 28.04289329 -25.80052058 25.52832713 -23 21 C-22.38065335 18.15513438 -22.1894812 15.50941768 -22.109375 12.6015625 C-21.97819018 9.48123786 -21.16917115 6.8839555 -20 4 C-19.34 4 -18.68 4 -18 4 C-17.01 6.97 -16.02 9.94 -15 13 C-9.75881979 8.461934 -9.75881979 8.461934 -8 2 C-7.67 2.66 -7.34 3.32 -7 4 C-5.824375 3.01 -5.824375 3.01 -4.625 2 C-2 0 -2 0 0 0 Z " fill="#808080" transform="translate(498,158)"/>
<path d="M0 0 C1.5056904 5.80766296 2.21824777 10.9981863 2 17 C2.58523438 17.24621094 3.17046875 17.49242187 3.7734375 17.74609375 C6.34402017 19.19373768 7.75455693 20.79242482 9.625 23.0625 C11.95485552 25.97875712 11.95485552 25.97875712 15 28 C15 28.66 15 29.32 15 30 C15.66 30 16.32 30 17 30 C18.8588679 32.20810975 20.37694278 34.6081262 22 37 C22.33 33.7 22.66 30.4 23 27 C23.99 26.67 24.98 26.34 26 26 C26.05441656 27.89551022 26.09298035 29.7914792 26.125 31.6875 C26.14820313 32.74324219 26.17140625 33.79898438 26.1953125 34.88671875 C25.99858729 38.02251859 25.33057654 40.17645373 24 43 C21.66666667 40.66666667 19.33333333 38.33333333 17 36 C16.34 36.66 15.68 37.32 15 38 C14.79375 37.319375 14.5875 36.63875 14.375 35.9375 C11.20274625 29.16041245 6.04330462 25.14736592 0 21 C-1.6498007 17.70039859 -1.38258361 14.00872116 -1.5625 10.375 C-1.62727539 9.17230469 -1.62727539 9.17230469 -1.69335938 7.9453125 C-1.79951457 5.9637489 -1.90026855 3.98189729 -2 2 C-2.66 1.67 -3.32 1.34 -4 1 C-2 0 -2 0 0 0 Z " fill="#0E0E0E" transform="translate(439,203)"/>
<path d="M0 0 C0.99 0 1.98 0 3 0 C3.20496094 0.85464844 3.40992188 1.70929688 3.62109375 2.58984375 C3.89050781 3.69457031 4.15992188 4.79929687 4.4375 5.9375 C4.83775391 7.59072266 4.83775391 7.59072266 5.24609375 9.27734375 C5.72995725 11.89421254 5.72995725 11.89421254 7 13 C7.99 9.04 8.98 5.08 10 1 C11.32 1 12.64 1 14 1 C15.32 0.67 16.64 0.34 18 0 C18 7.59 18 15.18 18 23 C17.01 23 16.02 23 15 23 C14.67 17.72 14.34 12.44 14 7 C11.74859317 11.95309502 9.60250371 16.79186293 8 22 C6.140625 21.45703125 6.140625 21.45703125 4 20 C3.04233602 17.50238868 2.35021837 15.26794701 1.75 12.6875 C1.57726562 12.02298828 1.40453125 11.35847656 1.2265625 10.67382812 C0.32414153 7.05340113 -0.20198619 3.72953064 0 0 Z " fill="#D2D2D2" transform="translate(610,269)"/>
<path d="M0 0 C0.99 0.33 1.98 0.66 3 1 C4.19088986 6.38027025 5.2919519 11.45291384 5 17 C5.66 17 6.32 17 7 17 C7.03738281 16.35933594 7.07476562 15.71867187 7.11328125 15.05859375 C7.54337277 9.39993859 8.46086906 5.07826187 11 0 C11.66 0.33 12.32 0.66 13 1 C13 1.66 13 2.32 13 3 C13.66 3 14.32 3 15 3 C15.33 2.01 15.66 1.02 16 0 C16.66 0 17.32 0 18 0 C18 6.6 18 13.2 18 20 C17.01 20 16.02 20 15 20 C15 15.05 15 10.1 15 5 C12.64006788 5.89860346 12.64006788 5.89860346 11.81640625 9.08984375 C11.17554911 11.02045101 10.55637827 12.95686939 9.94335938 14.89648438 C8.73322867 18.52687648 8.28813428 19.80791048 5 22 C-2.24457669 6.47590708 -2.24457669 6.47590708 0 0 Z " fill="#DCDCDC" transform="translate(357,269)"/>
<path d="M0 0 C3.93736123 -0.08696177 7.87447628 -0.14037835 11.8125 -0.1875 C13.49182617 -0.22520508 13.49182617 -0.22520508 15.20507812 -0.26367188 C16.27822266 -0.27333984 17.35136719 -0.28300781 18.45703125 -0.29296875 C19.9416687 -0.31653442 19.9416687 -0.31653442 21.45629883 -0.34057617 C24.3699213 0.04952877 25.22497802 0.72008288 27 3 C26.13375 3.2475 25.2675 3.495 24.375 3.75 C20.93147602 4.83440254 20.93147602 4.83440254 18.25 7.125 C13.82538203 9.67766422 9.99631563 10.12230052 5 9 C2.47540027 7.20635342 1.62026793 5.75445549 0 3 C0 2.01 0 1.02 0 0 Z " fill="#0F0F0F" transform="translate(534,216)"/>
<path d="M0 0 C0.66 0.33 1.32 0.66 2 1 C0.515 2.485 0.515 2.485 -1 4 C-0.34 4.33 0.32 4.66 1 5 C1.29296875 10.95703125 1.29296875 10.95703125 1 13 C0.49984375 13.47953125 -0.0003125 13.9590625 -0.515625 14.453125 C-2.247367 15.92541761 -2.247367 15.92541761 -2.15234375 18.33984375 C-2.08144531 19.19707031 -2.01054687 20.05429688 -1.9375 20.9375 C-1.77795594 25.68913832 -1.77795594 25.68913832 -3.875 28.625 C-6 30 -6 30 -8 30 C-7.98259766 28.12054688 -7.98259766 28.12054688 -7.96484375 26.203125 C-7.95546284 24.55208483 -7.94636296 22.90104304 -7.9375 21.25 C-7.92912109 20.425 -7.92074219 19.6 -7.91210938 18.75 C-7.90727539 17.55117187 -7.90727539 17.55117187 -7.90234375 16.328125 C-7.89710693 15.5949707 -7.89187012 14.86181641 -7.88647461 14.10644531 C-8.0024891 11.9538151 -8.40926729 10.0685865 -9 8 C-8.43410156 7.50628906 -7.86820312 7.01257813 -7.28515625 6.50390625 C-6.55167969 5.86324219 -5.81820313 5.22257813 -5.0625 4.5625 C-4.33160156 3.92441406 -3.60070312 3.28632813 -2.84765625 2.62890625 C-1.87860647 1.77458541 -0.91348825 0.91348825 0 0 Z " fill="#414141" transform="translate(474,210)"/>
<path d="M0 0 C0.99 0.66 1.98 1.32 3 2 C4.0153346 9.5851467 3.71442017 17.23444898 0 24 C-2.109375 24.69921875 -2.109375 24.69921875 -4 25 C-4.33 23.35 -4.66 21.7 -5 20 C-5.66 20 -6.32 20 -7 20 C-7.29299363 11.21019108 -7.29299363 11.21019108 -5 8 C-4.319375 7.34 -3.63875 6.68 -2.9375 6 C-0.92392778 3.92147384 -0.40175906 2.81231342 0 0 Z " fill="#C6C6C6" transform="translate(495,180)"/>
<path d="M0 0 C3.09902323 3.09902323 2.9898579 5.39147385 3.0625 9.75 C3.041875 10.8225 3.02125 11.895 3 13 C3.66 13 4.32 13 5 13 C4.97679687 12.39671875 4.95359375 11.7934375 4.9296875 11.171875 C4.91164063 10.37265625 4.89359375 9.5734375 4.875 8.75 C4.85179687 7.96109375 4.82859375 7.1721875 4.8046875 6.359375 C5.0171622 3.79268059 5.71345895 2.2083933 7 0 C7.66 0 8.32 0 9 0 C9.66 2.97 10.32 5.94 11 9 C11.66 6.36 12.32 3.72 13 1 C13.99 1 14.98 1 16 1 C15.66944259 7.94170563 15.24571282 13.79081025 12 20 C11.34 20 10.68 20 10 20 C9.34 16.7 8.68 13.4 8 10 C7.01 12.97 6.02 15.94 5 19 C4.34 19 3.68 19 3 19 C-0.44419134 6.51480638 -0.44419134 6.51480638 0 0 Z " fill="#DCDCDC" transform="translate(644,276)"/>
<path d="M0 0 C5.01835089 3.8949399 6.77535266 5.75429858 8 12 C8.33 10.68 8.66 9.36 9 8 C11.50298434 10.93828597 12.46930939 13.17902761 13 17 C11.0625 17.5625 11.0625 17.5625 9 18 C8.67 17.67 8.34 17.34 8 17 C7.67 19.31 7.34 21.62 7 24 C3.73539027 22.19587357 2.11070205 21.16605307 0 18 C-0.22705078 16.00708008 -0.22705078 16.00708008 -0.1953125 13.76953125 C-0.18886719 12.96708984 -0.18242187 12.16464844 -0.17578125 11.33789062 C-0.15902344 10.50451172 -0.14226562 9.67113281 -0.125 8.8125 C-0.11597656 7.96751953 -0.10695313 7.12253906 -0.09765625 6.25195312 C-0.07410703 4.16784757 -0.03823647 2.08388783 0 0 Z " fill="#404040" transform="translate(448,208)"/>
<path d="M0 0 C2.9375 -0.4375 2.9375 -0.4375 6 0 C8.42831931 2.18548738 8.94754778 3.43613865 9.25 6.6875 C9 9 9 9 8 10 C5.66702567 10.04092937 3.33294775 10.04241723 1 10 C1.33 10.99 1.66 11.98 2 13 C3.98 12.67 5.96 12.34 8 12 C7.67 13.65 7.34 15.3 7 17 C5.35 17.33 3.7 17.66 2 18 C-1.60491828 13.60650584 -2.43376276 10.71486357 -2.3359375 5.05078125 C-2 3 -2 3 0 0 Z " fill="#E8E8E8" transform="translate(633,276)"/>
<path d="M0 0 C4.75 0.75 4.75 0.75 7 3 C7.1875 6.0625 7.1875 6.0625 7 9 C6 10 6 10 2.9375 10.0625 C1.968125 10.041875 0.99875 10.02125 0 10 C0.33 11.32 0.66 12.64 1 14 C2.98 13.34 4.96 12.68 7 12 C6.42655063 14.86724686 6.1385485 15.8614515 4 18 C1.5 18.25 1.5 18.25 -1 18 C-3.68125591 15.31874409 -3.29880654 13.85875084 -3.3125 10.125 C-3.32925781 9.07570313 -3.34601563 8.02640625 -3.36328125 6.9453125 C-2.96460275 3.71301586 -2.16968109 2.37004742 0 0 Z " fill="#E0E0E0" transform="translate(347,275)"/>
<path d="M0 0 C1.86306221 5.56198864 0.55572617 11.48868307 -1 17 C-2.84195891 19.57566399 -4.17747446 20.41232939 -7 22 C-7.66 22 -8.32 22 -9 22 C-9.27264574 7.65201794 -9.27264574 7.65201794 -6.15234375 3.6015625 C-4.1524875 2.15545834 -2.25862037 0.98782486 0 0 Z " fill="#C6C6C6" transform="translate(486,187)"/>
<path d="M0 0 C1.99465048 3.15073362 2.27100565 6.01441814 2.53173828 9.6875 C3.11231129 17.85647405 3.11231129 17.85647405 7.625 24.5 C9.42672022 25.98798719 9.42672022 25.98798719 11 27 C10.67 27.66 10.34 28.32 10 29 C7.72149947 27.11278754 5.45240387 25.21591182 3.1875 23.3125 C2.54490234 22.78205078 1.90230469 22.25160156 1.24023438 21.70507812 C-2.27786793 18.7338311 -4.8411008 16.14275252 -7 12 C-8.58245275 10.24850835 -8.58245275 10.24850835 -10 9 C-9.67 8.34 -9.34 7.68 -9 7 C-6.69 8.98 -4.38 10.96 -2 13 C-2.061875 11.453125 -2.061875 11.453125 -2.125 9.875 C-2.00424851 6.13170373 -1.35127982 3.46265453 0 0 Z " fill="#797979" transform="translate(449,160)"/>
<path d="M0 0 C3 1 3 1 5 4 C5.66 2.68 6.32 1.36 7 0 C7.99 0 8.98 0 10 0 C10.66 1.98 11.32 3.96 12 6 C12.66 4.02 13.32 2.04 14 0 C14.66 0 15.32 0 16 0 C15.49202991 4.3177458 14.80317221 8.03302114 13 12 C12.01 12 11.02 12 10 12 C9.34 10.35 8.68 8.7 8 7 C7.34 8.98 6.68 10.96 6 13 C4.68 12.67 3.36 12.34 2 12 C0.70756464 7.8803623 -0.26252625 4.33168317 0 0 Z " fill="#C3C3C3" transform="translate(390,274)"/>
<path d="M0 0 C3 1.75 3 1.75 5 4 C5 5.32 5 6.64 5 8 C-0.94 8 -6.88 8 -13 8 C-12 3 -12 3 -10.4375 1.1875 C-6.96346062 -0.50498073 -3.74527301 -0.67489078 0 0 Z " fill="#131313" transform="translate(547,201)"/>
<path d="M0 0 C0.99 0 1.98 0 3 0 C3 4.62 3 9.24 3 14 C-3.8359375 14.9765625 -3.8359375 14.9765625 -6 15 C-8 13 -8 13 -8.25 9.5 C-8 6 -8 6 -6 4 C-2.875 4.375 -2.875 4.375 0 5 C0 3.35 0 1.7 0 0 Z " fill="#CBCBCB" transform="translate(449,269)"/>
<path d="M0 0 C2.1519437 3.22791555 2.20086443 4.28400809 2 8 C-0.31 8.33 -2.62 8.66 -5 9 C-5 9.99 -5 10.98 -5 12 C-2.69 11.34 -0.38 10.68 2 10 C1.375 11.9375 1.375 11.9375 0 14 C-3.125 14.75 -3.125 14.75 -6 15 C-8.44140066 12.45687431 -8.99243527 11.06051786 -9.4375 7.5 C-9 4 -9 4 -7.3125 1.5625 C-4.57126438 -0.28968623 -3.24177364 -0.59716883 0 0 Z " fill="#939393" transform="translate(386,274)"/>
<path d="M0 0 C3.5623295 3.19696238 5.64037053 5.1486718 6 10 C6.0659735 12.10323534 6.08562245 14.20835724 6.0625 16.3125 C6.05347656 17.38113281 6.04445313 18.44976562 6.03515625 19.55078125 C6.02355469 20.35902344 6.01195312 21.16726563 6 22 C4.35 22.66 2.7 23.32 1 24 C0.13036913 21.00293305 -0.11763099 18.35043474 -0.09765625 15.234375 C-0.09443359 14.34492188 -0.09121094 13.45546875 -0.08789062 12.5390625 C-0.07532227 11.15847656 -0.07532227 11.15847656 -0.0625 9.75 C-0.05798828 8.81414062 -0.05347656 7.87828125 -0.04882812 6.9140625 C-0.03706918 4.60930959 -0.02063426 2.30468773 0 0 Z " fill="#C7C7C7" transform="translate(455,238)"/>
<path d="M0 0 C2.1519437 3.22791555 2.20086443 4.28400809 2 8 C-0.31 8.33 -2.62 8.66 -5 9 C-4.67 9.66 -4.34 10.32 -4 11 C-2.02 10.67 -0.04 10.34 2 10 C2 10.99 2 11.98 2 13 C-0.86120256 14.43060128 -2.84010585 14.38692581 -6 14 C-8.59582599 11.14459142 -8.97795464 9.21310514 -9.375 5.375 C-9 2 -9 2 -7.875 0 C-4.98192987 -1.54297074 -3.06359725 -0.91256088 0 0 Z " fill="#D3D3D3" transform="translate(606,275)"/>
<path d="M0 0 C0.33 0.33 0.66 0.66 1 1 C0.90903444 3.86688248 0.76232012 6.70300515 0.5625 9.5625 C0.51029297 10.36880859 0.45808594 11.17511719 0.40429688 12.00585938 C0.27422624 14.00421738 0.13770944 16.00215386 0 18 C-1.98 18 -3.96 18 -6 18 C-6 12.06 -6 6.12 -6 0 C-3.49749232 -1.25125384 -2.59701335 -0.83774624 0 0 Z " fill="#C6C6C6" transform="translate(472,250)"/>
<path d="M0 0 C3.63 0 7.26 0 11 0 C11.33 1.65 11.66 3.3 12 5 C11.01 5.33 10.02 5.66 9 6 C9.495 6.598125 9.99 7.19625 10.5 7.8125 C12 10 12 10 12 13 C8.53004599 11.84334866 8.11443335 10.81924446 6 8 C5.01 7.67 4.02 7.34 3 7 C3 8.98 3 10.96 3 13 C2.01 13 1.02 13 0 13 C0 8.71 0 4.42 0 0 Z " fill="#EAEAEA" transform="translate(461,270)"/>
<path d="M0 0 C0 0.99 0 1.98 0 3 C-2.125 4.4375 -2.125 4.4375 -5 6 C-6.03125 6.70125 -7.0625 7.4025 -8.125 8.125 C-11 10 -11 10 -14 11 C-14 14.3 -14 17.6 -14 21 C-14.99 20.67 -15.98 20.34 -17 20 C-18.36538653 20.95577057 -19.69481525 21.96352976 -21 23 C-22.64797236 23.71162443 -24.31165408 24.39031953 -26 25 C-25.73942092 21.18556581 -25.31685973 19.36530753 -22.77734375 16.4375 C-21.84019531 15.633125 -20.90304687 14.82875 -19.9375 14 C-18.44669922 12.71609375 -18.44669922 12.71609375 -16.92578125 11.40625 C-6.50318471 2.8343949 -6.50318471 2.8343949 -1 1 C-0.67 0.67 -0.34 0.34 0 0 Z " fill="#1D1D1D" transform="translate(492,182)"/>
<path d="M0 0 C3.38879801 0.3388798 4.66384629 1.04066581 7.125 3.3125 C6.8125 6.1875 6.8125 6.1875 6.125 9.3125 C2.87866476 11.4767235 1.88198557 11.68819856 -1.875 11.3125 C-2.865 10.6525 -3.855 9.9925 -4.875 9.3125 C-5.1875 5.8125 -5.1875 5.8125 -4.875 2.3125 C-2.875 0.3125 -2.875 0.3125 0 0 Z " fill="#EBEBEB" transform="translate(505.875,178.6875)"/>
<path d="M0 0 C0.99 0.33 1.98 0.66 3 1 C2.95875 2.03125 2.9175 3.0625 2.875 4.125 C3.03803985 9.17923543 3.65006298 12.48643425 7.0625 16.3125 C8.031875 17.199375 9.00125 18.08625 10 19 C11.46191392 20.47562794 12.91991006 21.95514262 14.375 23.4375 C18.09997478 27.16871427 21.94368766 30.6341238 26 34 C23 34 23 34 21 33 C18.83333333 33.83333333 18.83333333 33.83333333 18 36 C16 33 16 33 15.6875 30.125 C14.79037262 26.04714826 13.31290188 24.48467641 10 22 C7.239835 22.04979584 7.239835 22.04979584 5 23 C2.28756911 15.51369074 0 8.01458058 0 0 Z " fill="#222222" transform="translate(428,162)"/>
<path d="M0 0 C0.99 0 1.98 0 3 0 C3 1.32 3 2.64 3 4 C3.66 4 4.32 4 5 4 C5 4.66 5 5.32 5 6 C4.34 6 3.68 6 3 6 C3 8.64 3 11.28 3 14 C3.99 14 4.98 14 6 14 C6 14.66 6 15.32 6 16 C4.33388095 16.042721 2.66617115 16.04063832 1 16 C-0.96822886 14.03177114 -0.66248381 10.65191291 -1 8 C-1.66 8 -2.32 8 -3 8 C-3 10.31 -3 12.62 -3 15 C-3.99 15.33 -4.98 15.66 -6 16 C-6 12.04 -6 8.08 -6 4 C-4.02 4 -2.04 4 0 4 C0 2.68 0 1.36 0 0 Z " fill="#919191" transform="translate(571,270)"/>
<path d="M0 0 C0.99 0 1.98 0 3 0 C3.33 1.32 3.66 2.64 4 4 C4.804375 4.144375 5.60875 4.28875 6.4375 4.4375 C9 5 9 5 10 6 C10.07244053 8.01964199 10.08377188 10.04167124 10.0625 12.0625 C10.05347656 13.16722656 10.04445313 14.27195312 10.03515625 15.41015625 C10.02355469 16.26480469 10.01195312 17.11945313 10 18 C9.01 17.67 8.02 17.34 7 17 C7 13.7 7 10.4 7 7 C5.68 7 4.36 7 3 7 C3 10.3 3 13.6 3 17 C2.01 17 1.02 17 0 17 C0 11.39 0 5.78 0 0 Z " fill="#CCCCCC" transform="translate(579,270)"/>
<path d="M0 0 C2.87635729 1.28940155 5.1868964 2.37857776 7 5 C7.29296875 8.35546875 7.29296875 8.35546875 7.1875 12.1875 C7.16042969 13.45980469 7.13335937 14.73210937 7.10546875 16.04296875 C7.07066406 17.01878906 7.03585937 17.99460938 7 19 C4.09144949 17.37506999 1.93634741 15.73223958 0 13 C-0.62003073 8.60768149 -0.41189925 4.40666818 0 0 Z " fill="#A8A8A8" transform="translate(455,200)"/>
<path d="M0 0 C2 1 2 1 2.875 2.8125 C4.2008317 5.39050609 5.92749664 6.99435159 8 9 C9.50662097 12.01324195 9.17770373 14.68286377 9 18 C8.34 18.66 7.68 19.32 7 20 C4 18 4 18 3.3125 14.875 C3.209375 13.92625 3.10625 12.9775 3 12 C2.01 12 1.02 12 0 12 C-0.76173392 7.6835078 -1.16063604 4.25566547 0 0 Z " fill="#C5C5C5" transform="translate(431,181)"/>
<path d="M0 0 C3 1 3 1 4.1875 3.0625 C4.455625 3.701875 4.72375 4.34125 5 5 C5.33 3.68 5.66 2.36 6 1 C7.32 1 8.64 1 10 1 C10.66 2.98 11.32 4.96 12 7 C12.66 5.02 13.32 3.04 14 1 C14.66 1 15.32 1 16 1 C15.34 4.3 14.68 7.6 14 11 C12.68 11 11.36 11 10 11 C9.34 9.35 8.68 7.7 8 6 C7.34 7.98 6.68 9.96 6 12 C3 11 3 11 2.05078125 9.2578125 C1.80714844 8.55398438 1.56351563 7.85015625 1.3125 7.125 C1.06113281 6.42632812 0.80976562 5.72765625 0.55078125 5.0078125 C0 3 0 3 0 0 Z " fill="#C4C4C4" transform="translate(546,273)"/>
<path d="M0 0 C2.5625 0.1875 2.5625 0.1875 4.5625 2.1875 C4.83700545 5.53646654 4.64878804 8.82226663 4.5625 12.1875 C1.2625 12.1875 -2.0375 12.1875 -5.4375 12.1875 C-5.4375 10.5375 -5.4375 8.8875 -5.4375 7.1875 C-2.79011084 5.7268715 -1.54301666 5.1875 1.5625 5.1875 C1.5625 4.5275 1.5625 3.8675 1.5625 3.1875 C-0.4175 3.8475 -2.3975 4.5075 -4.4375 5.1875 C-3.32386364 0.25568182 -3.32386364 0.25568182 0 0 Z " fill="#D7D7D7" transform="translate(419.4375,272.8125)"/>
<path d="M0 0 C3.52056974 1.95587208 6.56545463 3.75393951 9 7 C9.25 10.75 9.25 10.75 9 14 C5.04030824 12.32770299 1.9838799 9.63695006 -1.25 6.875 C-1.80429687 6.40707031 -2.35859375 5.93914062 -2.9296875 5.45703125 C-4.28947326 4.30824672 -5.64515165 3.15460347 -7 2 C-3.98968256 1.06576355 -3.13349732 0.95550089 0 2 C0 1.34 0 0.68 0 0 Z " fill="#B3B3B3" transform="translate(453,188)"/>
<path d="M0 0 C1.96290189 7.04335384 1.99939172 12.77466796 1 20 C1.5775 20.26296875 2.155 20.5259375 2.75 20.796875 C8.86243357 24.06532906 13.53195824 29.07542865 17 35 C16.34 35.99 15.68 36.98 15 38 C14.79375 37.319375 14.5875 36.63875 14.375 35.9375 C11.20274625 29.16041245 6.04330462 25.14736592 0 21 C-1.6498007 17.70039859 -1.38258361 14.00872116 -1.5625 10.375 C-1.62727539 9.17230469 -1.62727539 9.17230469 -1.69335938 7.9453125 C-1.79951457 5.9637489 -1.90026855 3.98189729 -2 2 C-2.66 1.67 -3.32 1.34 -4 1 C-2 0 -2 0 0 0 Z " fill="#3A3A3A" transform="translate(439,203)"/>
<path d="M0 0 C0.66 0 1.32 0 2 0 C2.33 2.31 2.66 4.62 3 7 C3.66 7 4.32 7 5 7 C5.33 4.69 5.66 2.38 6 0 C6.99 0 7.98 0 9 0 C10.6875 2.5 10.6875 2.5 12 5 C12.66 3.35 13.32 1.7 14 0 C14.66 0 15.32 0 16 0 C15.44894091 3.9492568 14.61064629 7.34920174 13 11 C12.01 11 11.02 11 10 11 C9.34 9.02 8.68 7.04 8 5 C6.515 7.475 6.515 7.475 5 10 C2 9 2 9 0.8125 7.25 C-0.10819096 4.70039426 -0.14948718 2.69076919 0 0 Z " fill="#C0C0C0" transform="translate(523,273)"/>
<path d="M0 0 C0.99 0.495 0.99 0.495 2 1 C2 3.31 2 5.62 2 8 C5.91402949 6.73058503 7.79072873 5.48832306 10 2 C10.25 5.3125 10.25 5.3125 10 9 C8.25 10.9375 8.25 10.9375 6 12 C4.68 12 3.36 12 2 12 C2 15.63 2 19.26 2 23 C1.34 23 0.68 23 0 23 C0 15.41 0 7.82 0 0 Z " fill="#F3F3F3" transform="translate(321,274)"/>
<path d="M0 0 C0.66 0.33 1.32 0.66 2 1 C-0.67884453 6.34805292 -4.71173249 9.1934746 -9.4375 12.63085938 C-12.81743823 15.28816375 -14.3512963 16.99657716 -14.8984375 21.35546875 C-14.93195313 22.55816406 -14.96546875 23.76085937 -15 25 C-15.12375 24.360625 -15.2475 23.72125 -15.375 23.0625 C-15.58125 22.381875 -15.7875 21.70125 -16 21 C-16.66 20.67 -17.32 20.34 -18 20 C-15.88614413 13.78369792 -12.9539483 10.67789814 -7.875 6.625 C-7.22917969 6.09261719 -6.58335937 5.56023437 -5.91796875 5.01171875 C-4.28520136 3.66648272 -2.64332808 2.33231458 -1 1 C-0.67 0.67 -0.34 0.34 0 0 Z " fill="#181818" transform="translate(481,177)"/>
<path d="M0 0 C0.99 0.33 1.98 0.66 3 1 C4.6875 4.5625 4.6875 4.5625 6 8 C7.99166915 5.09791688 7.99166915 5.09791688 9.5 2.3125 C9.995 1.549375 10.49 0.78625 11 0 C11.66 0 12.32 0 13 0 C12.03603575 5.20540698 11.12319499 9.59913433 8 14 C6.140625 13.8046875 6.140625 13.8046875 4 13 C2.734375 10.8203125 2.734375 10.8203125 1.75 8.125 C1.41484375 7.24070312 1.0796875 6.35640625 0.734375 5.4453125 C0 3 0 3 0 0 Z " fill="#DDDDDD" transform="translate(489,269)"/>
<path d="M0 0 C0 7.59 0 15.18 0 23 C-0.99 23 -1.98 23 -3 23 C-3.33 17.72 -3.66 12.44 -4 7 C-4.66 7.66 -5.32 8.32 -6 9 C-5.67 6.36 -5.34 3.72 -5 1 C-2 0 -2 0 0 0 Z " fill="#949494" transform="translate(628,269)"/>
<path d="M0 0 C0.66 0 1.32 0 2 0 C3.07423695 6.0157269 2.8091997 10.20364681 1 16 C0.62316936 17.33281711 0.24805654 18.6661216 -0.125 20 C-0.558125 21.485 -0.558125 21.485 -1 23 C-1.96661363 19.87819599 -1.98988909 17.47916205 -1.5625 14.25 C-1.40974609 13.05117187 -1.40974609 13.05117187 -1.25390625 11.828125 C-1.17011719 11.22484375 -1.08632813 10.6215625 -1 10 C-5.01751969 13.12473754 -7.43516411 15.56982893 -10 20 C-12.1875 21.8125 -12.1875 21.8125 -14 23 C-14.66 22.67 -15.32 22.34 -16 22 C-11.44407597 14.94504592 -5.6196311 10.08839971 1 5 C0.67 3.35 0.34 1.7 0 0 Z " fill="#282828" transform="translate(497,157)"/>
<path d="M0 0 C1.65 0.33 3.3 0.66 5 1 C4.98674817 4.1009285 4.80620938 6.99738687 4 10 C0.85230052 12.80555823 -0.76393124 14 -5 14 C-5 10.7 -5 7.4 -5 4 C-3.35 4 -1.7 4 0 4 C0 2.68 0 1.36 0 0 Z " fill="#3A3A3A" transform="translate(483,214)"/>
<path d="M0 0 C3.28453 0 5.84698314 0.23304995 9 1 C10 2 10 2 10.09765625 4.06640625 C10.08605469 4.89011719 10.07445312 5.71382813 10.0625 6.5625 C10.05347656 7.38878906 10.04445313 8.21507812 10.03515625 9.06640625 C10.02355469 9.70449219 10.01195312 10.34257812 10 11 C9.01 11 8.02 11 7 11 C7 8.36 7 5.72 7 3 C5.68 3.33 4.36 3.66 3 4 C2.67 6.64 2.34 9.28 2 12 C1.01 11.67 0.02 11.34 -1 11 C-1.02688151 9.35425434 -1.04634123 7.70838587 -1.0625 6.0625 C-1.07410156 5.14597656 -1.08570313 4.22945313 -1.09765625 3.28515625 C-1 1 -1 1 0 0 Z " fill="#C1C1C1" transform="translate(428,273)"/>
<path d="M0 0 C1.10462999 4.41851995 1.18189784 5.18167877 -1 9 C-3.21420275 11.15808241 -5.56087529 13.10217837 -8 15 C-8.45375 14.525625 -8.9075 14.05125 -9.375 13.5625 C-10.93258204 11.90972192 -10.93258204 11.90972192 -13 11 C-8.71 7.37 -4.42 3.74 0 0 Z " fill="#B5B5B5" transform="translate(494,170)"/>
<path d="M0 0 C0.99 0.33 1.98 0.66 3 1 C4.19088986 6.38027025 5.2919519 11.45291384 5 17 C5.66 17 6.32 17 7 17 C7.33 15.68 7.66 14.36 8 13 C8.33 13 8.66 13 9 13 C8.6875 16.375 8.6875 16.375 8 20 C7.01 20.66 6.02 21.32 5 22 C-2.24457669 6.47590708 -2.24457669 6.47590708 0 0 Z " fill="#DFDFDF" transform="translate(357,269)"/>
<path d="M0 0 C0.99 0.66 1.98 1.32 3 2 C4.0153346 9.5851467 3.71442017 17.23444898 0 24 C-2.109375 24.69921875 -2.109375 24.69921875 -4 25 C-4.33 24.01 -4.66 23.02 -5 22 C-4.34 21.67 -3.68 21.34 -3 21 C-3.33 20.34 -3.66 19.68 -4 19 C-3.34 18.67 -2.68 18.34 -2 18 C-0.86649466 15.98330173 -0.86649466 15.98330173 0 14 C0.66 14 1.32 14 2 14 C1.67 11.69 1.34 9.38 1 7 C0.67 7.66 0.34 8.32 0 9 C-1.65 9 -3.3 9 -5 9 C-4.0409375 7.88625 -4.0409375 7.88625 -3.0625 6.75 C-1.21666593 4.2888879 -0.43930826 2.96533074 0 0 Z " fill="#B9B9B9" transform="translate(495,180)"/>
<path d="M0 0 C0.66 0 1.32 0 2 0 C2 0.66 2 1.32 2 2 C2.66 2 3.32 2 4 2 C4 1.34 4 0.68 4 0 C5.32 0.33 6.64 0.66 8 1 C8 1.99 8 2.98 8 4 C6.68 4 5.36 4 4 4 C3.67 8.62 3.34 13.24 3 18 C2.01 18.33 1.02 18.66 0 19 C0 12.73 0 6.46 0 0 Z " fill="#D1D1D1" transform="translate(335,276)"/>
<path d="M0 0 C3.09902323 3.09902323 2.9898579 5.39147385 3.0625 9.75 C3.041875 10.8225 3.02125 11.895 3 13 C3.66 13 4.32 13 5 13 C4.98839844 12.38511719 4.97679687 11.77023437 4.96484375 11.13671875 C4.95582031 10.32847656 4.94679688 9.52023437 4.9375 8.6875 C4.92589844 7.88699219 4.91429687 7.08648437 4.90234375 6.26171875 C5 4 5 4 6 1 C6.66 1 7.32 1 8 1 C8.33 2.65 8.66 4.3 9 6 C8.34 6 7.68 6 7 6 C6.93941406 6.77085937 6.87882813 7.54171875 6.81640625 8.3359375 C6.69072266 9.84027344 6.69072266 9.84027344 6.5625 11.375 C6.48128906 12.37273437 6.40007813 13.37046875 6.31640625 14.3984375 C6 17 6 17 5 19 C4.34 19 3.68 19 3 19 C-0.44419134 6.51480638 -0.44419134 6.51480638 0 0 Z " fill="#E0E0E0" transform="translate(644,276)"/>
<path d="M0 0 C3 1 3 1 5 4 C4 7 4 7 3 9 C1.25 9.5625 1.25 9.5625 -1 10 C-1.9075 10.185625 -2.815 10.37125 -3.75 10.5625 C-4.4925 10.706875 -5.235 10.85125 -6 11 C-6 5.62229987 -3.67363231 3.67363231 0 0 Z " fill="#C4C4C4" transform="translate(463,59)"/>
<path d="M0 0 C0.33 0 0.66 0 1 0 C1 3.3 1 6.6 1 10 C2.65 9.34 4.3 8.68 6 8 C1.1739739 14.13035748 -4.36090645 19.82800164 -11 24 C-13.2734375 23.875 -13.2734375 23.875 -15 23 C-15.33 22.34 -15.66 21.68 -16 21 C-14.824375 20.649375 -13.64875 20.29875 -12.4375 19.9375 C-7.53540586 18.04469853 -3.78838436 15.53112458 -1 11 C-0.16593651 7.31125492 0.04778203 3.77478017 0 0 Z " fill="#989898" transform="translate(476,168)"/>
<path d="M0 0 C3.625 0.375 3.625 0.375 7 1 C7.33 2.32 7.66 3.64 8 5 C5.36 5 2.72 5 0 5 C0.33 5.66 0.66 6.32 1 7 C3.31 7 5.62 7 8 7 C7.01 8.485 7.01 8.485 6 10 C3 10.3125 3 10.3125 0 10 C-2 8 -2 8 -2.25 5 C-2 2 -2 2 0 0 Z " fill="#9D9D9D" transform="translate(478,273)"/>
<path d="M0 0 C3.0625 0.25 3.0625 0.25 6.0625 2.25 C6.0625 3.24 6.0625 4.23 6.0625 5.25 C5.0725 5.25 4.0825 5.25 3.0625 5.25 C2.7325 4.59 2.4025 3.93 2.0625 3.25 C0.03786745 2.59786708 0.03786745 2.59786708 -1.9375 2.25 C-1.9375 2.91 -1.9375 3.57 -1.9375 4.25 C-0.9475 4.58 0.0425 4.91 1.0625 5.25 C0.0725 5.25 -0.9175 5.25 -1.9375 5.25 C-1.9375 6.24 -1.9375 7.23 -1.9375 8.25 C0.7025 7.92 3.3425 7.59 6.0625 7.25 C6.0625 7.91 6.0625 8.57 6.0625 9.25 C3.07655576 10.74297212 0.35396376 10.36755228 -2.9375 10.25 C-3.5975 9.92 -4.2575 9.59 -4.9375 9.25 C-5.0625 5.875 -5.0625 5.875 -4.9375 2.25 C-2.9375 0.25 -2.9375 0.25 0 0 Z " fill="#CCCCCC" transform="translate(514.9375,272.75)"/>
<path d="M0 0 C0.33 0.99 0.66 1.98 1 3 C1.99 3 2.98 3 4 3 C4 3.99 4 4.98 4 6 C4.99 6.33 5.98 6.66 7 7 C6.34 7 5.68 7 5 7 C5 7.66 5 8.32 5 9 C6.65 9.33 8.3 9.66 10 10 C10 12.31 10 14.62 10 17 C9.67 15.68 9.34 14.36 9 13 C7.02 13.33 5.04 13.66 3 14 C-0.44419134 4.58997722 -0.44419134 4.58997722 0 0 Z " fill="#B3B3B3" transform="translate(430,190)"/>
<path d="M0 0 C0.42575 3.10189288 0.61361622 5.91644958 0 9 C-2.04133177 11.24086044 -4.30969236 12.63425709 -7 14 C-7.91693437 6.20605782 -7.91693437 6.20605782 -5.69921875 3.2890625 C-1.7162211 0 -1.7162211 0 0 0 Z " fill="#BEBEBE" transform="translate(478,221)"/>
<path d="M0 0 C0.99 0.33 1.98 0.66 3 1 C2.34 1 1.68 1 1 1 C1.01160156 2.14339844 1.02320313 3.28679687 1.03515625 4.46484375 C1.04453288 5.95572754 1.05363321 7.44661309 1.0625 8.9375 C1.07087891 9.69224609 1.07925781 10.44699219 1.08789062 11.22460938 C1.09652441 13.14994313 1.05224333 15.07535581 1 17 C0 18 0 18 -2.5625 18.0625 C-3.366875 18.041875 -4.17125 18.02125 -5 18 C-3.68 17.67 -2.36 17.34 -1 17 C-1 16.34 -1 15.68 -1 15 C-1.99 15 -2.98 15 -4 15 C-4 12.36 -4 9.72 -4 7 C-3.34 7 -2.68 7 -2 7 C-1.34 4.69 -0.68 2.38 0 0 Z " fill="#343434" transform="translate(578,269)"/>
<path d="M0 0 C0.99 0.33 1.98 0.66 3 1 C3 6.94 3 12.88 3 19 C2.34 18.34 1.68 17.68 1 17 C1.33 16.34 1.66 15.68 2 15 C-1.11785113 15.64644661 -1.11785113 15.64644661 -2 18 C-2.99 17.67 -3.98 17.34 -5 17 C-4.525625 16.566875 -4.05125 16.13375 -3.5625 15.6875 C-0.75462907 12.65499939 -0.76313866 9.26668372 -0.4375 5.3125 C-0.35371094 4.31863281 -0.26992188 3.32476562 -0.18359375 2.30078125 C-0.12300781 1.54152344 -0.06242187 0.78226563 0 0 Z " fill="#080808" transform="translate(462,250)"/>
<path d="M0 0 C6.13484466 2.49938116 9.5465357 7.5895726 13 13 C13.98866506 14.34175973 14.9838154 15.67896002 16 17 C12.09521545 15.38071731 9.43827444 12.80673954 6.375 9.9375 C2.95790247 6.58466353 2.95790247 6.58466353 -1 4 C-0.67 2.68 -0.34 1.36 0 0 Z " fill="#A5A5A5" transform="translate(429,158)"/>
<path d="M0 0 C2 2 2 2 2.21801758 4.24316406 C1.71825396 23.09803335 1.71825396 23.09803335 -2.484375 27.75 C-5.29866912 29.17948273 -7.98826939 30.08708314 -11 31 C-12.81406078 32.49262748 -12.81406078 32.49262748 -14 34 C-14.66 33.67 -15.32 33.34 -16 33 C-14.98619919 32.07556158 -13.96344154 31.1609459 -12.9375 30.25 C-12.36902344 29.73953125 -11.80054688 29.2290625 -11.21484375 28.703125 C-9 27 -9 27 -5.34375 25.53125 C-2.76815753 24.09796044 -2.11800219 23.38931887 -1.25024414 20.52636719 C-0.8594876 17.42395037 -0.67045143 14.37490976 -0.5625 11.25 C-0.46678711 9.63158203 -0.46678711 9.63158203 -0.36914062 7.98046875 C-0.21612944 5.32042821 -0.09427884 2.66266306 0 0 Z " fill="#565656" transform="translate(490,203)"/>
<path d="M0 0 C0.99 0 1.98 0 3 0 C3.19335938 0.85464844 3.38671875 1.70929688 3.5859375 2.58984375 C3.84632813 3.69457031 4.10671875 4.79929687 4.375 5.9375 C4.63023437 7.03964844 4.88546875 8.14179688 5.1484375 9.27734375 C5.42945313 10.17582031 5.71046875 11.07429688 6 12 C6.66 12.33 7.32 12.66 8 13 C8 14.32 8 15.64 8 17 C7.01 17 6.02 17 5 17 C4.67 17.99 4.34 18.98 4 20 C3.32550034 17.60612843 2.66023359 15.21030779 2 12.8125 C1.80921875 12.13896484 1.6184375 11.46542969 1.421875 10.77148438 C0.4174164 7.09444844 -0.23704741 3.8149818 0 0 Z " fill="#C9C9C9" transform="translate(610,269)"/>
<path d="M0 0 C0.33 0 0.66 0 1 0 C1.02505615 0.74685059 1.0501123 1.49370117 1.07592773 2.26318359 C1.19168213 5.63397267 1.31450128 9.00446783 1.4375 12.375 C1.47681641 13.550625 1.51613281 14.72625 1.55664062 15.9375 C1.59853516 17.05898437 1.64042969 18.18046875 1.68359375 19.3359375 C1.72025146 20.37282715 1.75690918 21.4097168 1.79467773 22.47802734 C1.84164223 24.99425166 1.84164223 24.99425166 3 27 C2.34 27 1.68 27 1 27 C0.96261719 27.83144531 0.92523438 28.66289063 0.88671875 29.51953125 C0.82097656 30.60621094 0.75523437 31.69289063 0.6875 32.8125 C0.60048828 34.43091797 0.60048828 34.43091797 0.51171875 36.08203125 C-0.03068507 39.17497517 -0.55289624 40.13022903 -3 42 C-2.85866501 40.22880197 -2.71176792 38.45804713 -2.5625 36.6875 C-2.48128906 35.70136719 -2.40007812 34.71523437 -2.31640625 33.69921875 C-2 31 -2 31 -1 28 C-0.84929203 25.86338742 -0.7514034 23.72287876 -0.68359375 21.58203125 C-0.64169922 20.32841797 -0.59980469 19.07480469 -0.55664062 17.78320312 C-0.51732422 16.47287109 -0.47800781 15.16253906 -0.4375 13.8125 C-0.39429008 12.47720022 -0.350675 11.14191348 -0.30664062 9.80664062 C-0.20043498 6.53786703 -0.09839003 3.26901667 0 0 Z " fill="#8C8C8C" transform="translate(474,78)"/>
<path d="M0 0 C2.44989101 3.74235319 2.23086143 7.44225419 2.125 11.75 C2.11597656 12.44738281 2.10695313 13.14476562 2.09765625 13.86328125 C2.07419888 15.57566958 2.03833104 17.28788004 2 19 C0.0234375 17.80078125 0.0234375 17.80078125 -2 16 C-3.10131756 10.57741098 -2.12775692 5.05342269 0 0 Z " fill="#070707" transform="translate(449,160)"/>
<path d="M0 0 C0.66 0 1.32 0 2 0 C2.82791734 2.9076457 3.16193659 5.54090519 3.1875 8.5625 C3.20167969 9.32691406 3.21585937 10.09132812 3.23046875 10.87890625 C3 13 3 13 1 16 C0.34 16 -0.32 16 -1 16 C-1.02712153 14.083412 -1.04645097 12.1667127 -1.0625 10.25 C-1.07410156 9.18265625 -1.08570313 8.1153125 -1.09765625 7.015625 C-1.01510087 4.46631499 -0.74617558 2.42066409 0 0 Z " fill="#141414" transform="translate(478,162)"/>
<path d="M0 0 C0.99 0 1.98 0 3 0 C3 1.32 3 2.64 3 4 C3.66 4 4.32 4 5 4 C5 4.66 5 5.32 5 6 C4.34 6 3.68 6 3 6 C3 8.64 3 11.28 3 14 C3.99 14 4.98 14 6 14 C6 14.66 6 15.32 6 16 C4.35 16 2.7 16 1 16 C1 12.7 1 9.4 1 6 C0.34 6 -0.32 6 -1 6 C-0.67 4.02 -0.34 2.04 0 0 Z " fill="#F2F2F2" transform="translate(571,270)"/>
<path d="M0 0 C0.33 1.32 0.66 2.64 1 4 C1.66 4 2.32 4 3 4 C3 5.32 3 6.64 3 8 C4.32 7.34 5.64 6.68 7 6 C5.71937515 7.7074998 4.38232443 9.37373596 3 11 C2.34 11 1.68 11 1 11 C1 11.99 1 12.98 1 14 C1.66 14.33 2.32 14.66 3 15 C2.01 15.99 1.02 16.98 0 18 C-0.33 16.35 -0.66 14.7 -1 13 C-1.33 13 -1.66 13 -2 13 C-2 10.69 -2 8.38 -2 6 C-1.67 6 -1.34 6 -1 6 C-0.67 4.02 -0.34 2.04 0 0 Z " fill="#0B0B0B" transform="translate(464,198)"/>
<path d="M0 0 C0.33 0 0.66 0 1 0 C1.042721 1.66611905 1.04063832 3.33382885 1 5 C0.67 5.33 0.34 5.66 0 6 C0.00904685 8.52407039 0.13287291 11.03384749 0.2578125 13.5546875 C0 16 0 16 -1.5078125 17.8203125 C-2.24644531 18.40425781 -2.24644531 18.40425781 -3 19 C-3.66 18.67 -4.32 18.34 -5 18 C-4.55120234 15.37303769 -4.09145886 12.74883107 -3.625 10.125 C-3.49867188 9.37863281 -3.37234375 8.63226563 -3.2421875 7.86328125 C-2.2265625 2.2265625 -2.2265625 2.2265625 0 0 Z " fill="#252525" transform="translate(489,186)"/>
<path d="M0 0 C3.81311305 1.4980087 5.72483551 3.62648024 8 7 C8.75 9.8125 8.75 9.8125 9 12 C8.01 11.34 7.02 10.68 6 10 C6 9.34 6 8.68 6 8 C5.01 8.33 4.02 8.66 3 9 C2.731875 8.401875 2.46375 7.80375 2.1875 7.1875 C1.01506533 5.02775192 -0.19369282 3.64209744 -2 2 C-1.34 1.34 -0.68 0.68 0 0 Z " fill="#434343" transform="translate(436,183)"/>
<path d="M0 0 C0.66 0 1.32 0 2 0 C2 1.98 2 3.96 2 6 C2.66 6.33 3.32 6.66 4 7 C3.67 10.3 3.34 13.6 3 17 C2.01 17 1.02 17 0 17 C0 11.39 0 5.78 0 0 Z " fill="#DBDBDB" transform="translate(579,270)"/>
<path d="M0 0 C1.53445094 3.06890187 0.54984289 5.70094266 0 9 C-0.99 9.33 -1.98 9.66 -3 10 C-2.67 12.31 -2.34 14.62 -2 17 C-3.50390625 15.84375 -3.50390625 15.84375 -5 14 C-5.21484375 11.40625 -5.21484375 11.40625 -4.9375 8.5 C-4.86402344 7.5409375 -4.79054688 6.581875 -4.71484375 5.59375 C-3.84864804 2.45083223 -2.74980468 1.63771064 0 0 Z " fill="#454545" transform="translate(481,208)"/>
<path d="M0 0 C1.66611905 -0.042721 3.33382885 -0.04063832 5 0 C6 1 6 1 6.1875 3.4375 C6 6 6 6 4 8 C2.68 8 1.36 8 0 8 C0 5.36 0 2.72 0 0 Z " fill="#272727" transform="translate(323,274)"/>
<path d="M0 0 C2.93446886 1.41791563 5.43332409 2.98332607 8 5 C7.67 5.99 7.34 6.98 7 8 C4.525 7.01 4.525 7.01 2 6 C2.33 6.66 2.66 7.32 3 8 C3.039992 9.99960012 3.04346799 12.00047242 3 14 C1.20724134 10.88089144 0.65709282 8.32317572 0.375 4.75 C0.30023438 3.85796875 0.22546875 2.9659375 0.1484375 2.046875 C0.09945313 1.37140625 0.05046875 0.6959375 0 0 Z " fill="#111111" transform="translate(430,164)"/>
<path d="M0 0 C0.66 0.33 1.32 0.66 2 1 C2 1.99 2 2.98 2 4 C2.66 4 3.32 4 4 4 C4 3.34 4 2.68 4 2 C4.66 2 5.32 2 6 2 C4.48328036 6.55015893 0.83108947 8.50057264 -3 11 C-3.36923077 3.49230769 -3.36923077 3.49230769 -1.5 1 C-1.005 0.67 -0.51 0.34 0 0 Z " fill="#B3B3B3" transform="translate(469,191)"/>
<path d="M0 0 C0.66 0 1.32 0 2 0 C2.33 1.32 2.66 2.64 3 4 C1.40112446 5.48488441 -0.20428905 6.96273145 -1.8125 8.4375 C-3.15248047 9.67306641 -3.15248047 9.67306641 -4.51953125 10.93359375 C-7 13 -7 13 -10 14 C-9.67 13.01 -9.34 12.02 -9 11 C-8.34 11 -7.68 11 -7 11 C-6.67 10.01 -6.34 9.02 -6 8 C-5.34 8 -4.68 8 -4 8 C-3.71125 7.05125 -3.4225 6.1025 -3.125 5.125 C-2 2 -2 2 0 0 Z " fill="#9F9F9F" transform="translate(496,158)"/>
<path d="M0 0 C0.99 0 1.98 0 3 0 C3 4.62 3 9.24 3 14 C2.01 14 1.02 14 0 14 C0 9.38 0 4.76 0 0 Z " fill="#D2D2D2" transform="translate(372,275)"/>
<path d="M0 0 C0.66 0 1.32 0 2 0 C2 3.63 2 7.26 2 11 C1.01 11.495 1.01 11.495 0 12 C-0.33 10.35 -0.66 8.7 -1 7 C-2.32 6.67 -3.64 6.34 -5 6 C-5 6.66 -5 7.32 -5 8 C-5.99 8.33 -6.98 8.66 -8 9 C-7.67 7.68 -7.34 6.36 -7 5 C-2.25 3.875 -2.25 3.875 0 5 C0 3.35 0 1.7 0 0 Z " fill="#DFDFDF" transform="translate(449,269)"/>
<path d="M0 0 C2.00720923 0.28674418 4.0085944 0.61866701 6 1 C7 4 7 4 6 7 C4.02 7 2.04 7 0 7 C0.33 5.35 0.66 3.7 1 2 C0.34 1.67 -0.32 1.34 -1 1 C-0.67 0.67 -0.34 0.34 0 0 Z " fill="#C7C7C7" transform="translate(600,274)"/>
<path d="M0 0 C0 3.63 0 7.26 0 11 C-4 9 -4 9 -4.875 6.5625 C-5 4 -5 4 -3 1 C-1 0 -1 0 0 0 Z " fill="#C6C6C6" transform="translate(461,206)"/>
<path d="M0 0 C3.7952131 1.49097658 5.61042731 3.75700849 8 7 C6.68 8.32 5.36 9.64 4 11 C1.52214277 7.33708062 0.51035831 4.3890815 0 0 Z " fill="#BBBBBB" transform="translate(432,170)"/>
<path d="M0 0 C0.99 0.33 1.98 0.66 3 1 C3.33 3.31 3.66 5.62 4 8 C1.36 7.34 -1.28 6.68 -4 6 C-3.67 4.68 -3.34 3.36 -3 2 C-2.01 2 -1.02 2 0 2 C0 1.34 0 0.68 0 0 Z " fill="#CDCDCD" transform="translate(638,277)"/>
<path d="M0 0 C3 1 3 1 5 4 C6 7 6 7 5 10 C4.34 10 3.68 10 3 10 C2.67 10.66 2.34 11.32 2 12 C0.70756464 7.8803623 -0.26252625 4.33168317 0 0 Z " fill="#787878" transform="translate(390,274)"/>
<path d="M0 0 C4.70588235 0.70588235 4.70588235 0.70588235 6 2 C6.07179964 3.51928038 6.08392007 5.04167482 6.0625 6.5625 C6.05347656 7.38878906 6.04445313 8.21507812 6.03515625 9.06640625 C6.01775391 10.02353516 6.01775391 10.02353516 6 11 C5.01 11 4.02 11 3 11 C2.83723958 8.98177083 2.67447917 6.96354167 2.51171875 4.9453125 C2.12606964 2.60480784 2.12606964 2.60480784 -1 1 C-0.67 0.67 -0.34 0.34 0 0 Z " fill="#C9C9C9" transform="translate(432,273)"/>
<path d="M0 0 C0.33 0 0.66 0 1 0 C2.25 6.625 2.25 6.625 0 10 C0 9.34 0 8.68 0 8 C-0.598125 8.515625 -1.19625 9.03125 -1.8125 9.5625 C-2.534375 10.036875 -3.25625 10.51125 -4 11 C-4.99 10.67 -5.98 10.34 -7 10 C-7 8.68 -7 7.36 -7 6 C-5.02 5.67 -3.04 5.34 -1 5 C-0.67 3.35 -0.34 1.7 0 0 Z " fill="#232323" transform="translate(354,279)"/>
<path d="M0 0 C2.125 0.375 2.125 0.375 4 1 C3.01 1 2.02 1 1 1 C1 1.66 1 2.32 1 3 C2.32 3.66 3.64 4.32 5 5 C5 5.99 5 6.98 5 8 C3.02 8 1.04 8 -1 8 C-1.625 5.125 -1.625 5.125 -2 2 C-1.34 1.34 -0.68 0.68 0 0 Z " fill="#707070" transform="translate(347,275)"/>
<path d="M0 0 C0.33 1.32 0.66 2.64 1 4 C1.66 4 2.32 4 3 4 C3.33 6.31 3.66 8.62 4 11 C2.68 11.33 1.36 11.66 0 12 C-3 7.25 -3 7.25 -3 5 C-2.34 4.67 -1.68 4.34 -1 4 C-0.34786708 1.97536745 -0.34786708 1.97536745 0 0 Z " fill="#363636" transform="translate(473,271)"/>
<path d="M0 0 C0.33 0 0.66 0 1 0 C1.1567564 7.71589817 0.67453101 15.31516461 0 23 C-1.32 21.68 -2.64 20.36 -4 19 C-3.69320313 18.15179688 -3.38640625 17.30359375 -3.0703125 16.4296875 C-1.99392617 12.98053713 -1.38548682 9.69840777 -0.875 6.125 C-0.70742188 4.97257813 -0.53984375 3.82015625 -0.3671875 2.6328125 C-0.24601562 1.76398438 -0.12484375 0.89515625 0 0 Z " fill="#171717" transform="translate(489,203)"/>
<path d="M0 0 C2 1 2 1 3.1875 3.4375 C4 6 4 6 3 8 C2.67 8.33 2.34 8.66 2 9 C2.66 9.33 3.32 9.66 4 10 C4 10.66 4 11.32 4 12 C2.68 12 1.36 12 0 12 C-0.76173392 7.6835078 -1.16063604 4.25566547 0 0 Z M4 9 C6 10 6 10 6 10 Z " fill="#C8C8C8" transform="translate(431,181)"/>
<path d="M0 0 C0.99 0.66 1.98 1.32 3 2 C3.29296875 5.2578125 3.29296875 5.2578125 3.1875 9.125 C3.16042969 10.40632812 3.13335937 11.68765625 3.10546875 13.0078125 C3.07066406 13.99523437 3.03585937 14.98265625 3 16 C2.67 16 2.34 16 2 16 C1.67 13.03 1.34 10.06 1 7 C0.67 7.66 0.34 8.32 0 9 C-1.65 9 -3.3 9 -5 9 C-4.0409375 7.88625 -4.0409375 7.88625 -3.0625 6.75 C-1.21666593 4.2888879 -0.43930826 2.96533074 0 0 Z " fill="#939393" transform="translate(495,180)"/>
<path d="M0 0 C1.65 0.33 3.3 0.66 5 1 C4.67 2.65 4.34 4.3 4 6 C2.68 6.33 1.36 6.66 0 7 C-1.125 2.25 -1.125 2.25 0 0 Z " fill="#292929" transform="translate(444,275)"/>
<path d="M0 0 C0.66 0.33 1.32 0.66 2 1 C3.1577506 4.47325181 3.06866652 7.36067448 3 11 C-1.92307692 6.69230769 -1.92307692 6.69230769 -2.3125 3.1875 C-2.209375 2.465625 -2.10625 1.74375 -2 1 C-1.34 0.67 -0.68 0.34 0 0 Z " fill="#414141" transform="translate(459,230)"/>
<path d="M0 0 C4.875 0.875 4.875 0.875 6 2 C6.125 5 6.125 5 6 8 C5 9 5 9 1.9375 9.0625 C0.968125 9.041875 -0.00125 9.02125 -1 9 C-0.67 8.34 -0.34 7.68 0 7 C1.32 7 2.64 7 4 7 C2.6910428 3.87802522 2.6910428 3.87802522 0 2 C0 1.34 0 0.68 0 0 Z " fill="#EFEFEF" transform="translate(348,276)"/>
<path d="M0 0 C3 1 3 1 4.16796875 3.28515625 C4.50441406 4.20167969 4.84085937 5.11820312 5.1875 6.0625 C5.53167969 6.98160156 5.87585938 7.90070313 6.23046875 8.84765625 C6.48441406 9.55792969 6.73835938 10.26820313 7 11 C5.68 11.33 4.36 11.66 3 12 C2.49440092 10.56445975 1.9957251 9.1264798 1.5 7.6875 C1.2215625 6.88699219 0.943125 6.08648437 0.65625 5.26171875 C0 3 0 3 0 0 Z " fill="#C8C8C8" transform="translate(489,269)"/>
<path d="M0 0 C6.65564729 3.09429216 11.27794502 7.74694763 15 14 C14.01 15.485 14.01 15.485 13 17 C12.79375 16.319375 12.5875 15.63875 12.375 14.9375 C9.60687016 9.02376807 4.64146212 4.50494853 0 0 Z " fill="#6D6D6D" transform="translate(441,224)"/>
<path d="M0 0 C1.65 0.33 3.3 0.66 5 1 C4.67 3.31 4.34 5.62 4 8 C1.69 7.67 -0.62 7.34 -3 7 C-3 6.01 -3 5.02 -3 4 C-2.01 4 -1.02 4 0 4 C0 2.68 0 1.36 0 0 Z " fill="#444444" transform="translate(483,214)"/>
<path d="M0 0 C0.99 0.33 1.98 0.66 3 1 C2.95875 2.03125 2.9175 3.0625 2.875 4.125 C2.99681294 7.90120106 3.64981112 10.50539349 5 14 C5.33 14.99 5.66 15.98 6 17 C5.34 17.99 4.68 18.98 4 20 C1.61886111 13.53690874 0 6.89733709 0 0 Z " fill="#474747" transform="translate(428,162)"/>
<path d="M0 0 C0.99 0 1.98 0 3 0 C2.65978036 3.17538332 1.97533396 4.02276865 -0.4375 6.25 C-3 8 -3 8 -5 8 C-5 6.02 -5 4.04 -5 2 C-4.01 1.67 -3.02 1.34 -2 1 C-1.34 1.33 -0.68 1.66 0 2 C0 1.34 0 0.68 0 0 Z " fill="#ABABAB" transform="translate(482,201)"/>
<path d="M0 0 C0 0.99 0 1.98 0 3 C-2.125 4.4375 -2.125 4.4375 -5 6 C-6.485 7.0209375 -6.485 7.0209375 -8 8.0625 C-10.64315965 9.76954061 -13.04622927 10.95749268 -16 12 C-11.3655794 7.23316738 -7.31564663 3.28065017 -1 1 C-0.67 0.67 -0.34 0.34 0 0 Z " fill="#3C3C3C" transform="translate(492,182)"/>
<path d="M0 0 C0.625 1.875 0.625 1.875 1 4 C0.34 4.66 -0.32 5.32 -1 6 C-3.5 5.875 -3.5 5.875 -6 5 C-7.3125 2.9375 -7.3125 2.9375 -8 1 C-6.865625 1.020625 -5.73125 1.04125 -4.5625 1.0625 C-1.18424326 1.41577477 -1.18424326 1.41577477 0 0 Z " fill="#D3D3D3" transform="translate(640,288)"/>
<path d="M0 0 C0.66 1.32 1.32 2.64 2 4 C2.66 4 3.32 4 4 4 C4.33 2.68 4.66 1.36 5 0 C5.33 0 5.66 0 6 0 C5.6875 3.375 5.6875 3.375 5 7 C4.01 7.66 3.02 8.32 2 9 C-0.29013653 5.5647952 -0.17842973 4.014669 0 0 Z " fill="#EAEAEA" transform="translate(360,282)"/>
<path d="M0 0 C0.66 0.33 1.32 0.66 2 1 C2 2.65 2 4.3 2 6 C4.31 6 6.62 6 9 6 C8.01 7.485 8.01 7.485 7 9 C4 9.3125 4 9.3125 1 9 C-1 7 -1 7 -1.1875 3.9375 C-1 1 -1 1 0 0 Z " fill="#D8D8D8" transform="translate(477,274)"/>
<path d="M0 0 C3.125 -0.1875 3.125 -0.1875 6 0 C5.67 0.99 5.34 1.98 5 3 C4.01 3.33 3.02 3.66 2 4 C0.0549 6.91765 -0.45276317 8.62537285 -1 12 C-1.33 12 -1.66 12 -2 12 C-2.05422947 10.5629191 -2.09289723 9.12524538 -2.125 7.6875 C-2.14820313 6.88699219 -2.17140625 6.08648437 -2.1953125 5.26171875 C-2 3 -2 3 0 0 Z " fill="#D1D1D1" transform="translate(633,276)"/>
<path d="M0 0 C0.66 0 1.32 0 2 0 C2.55875662 2.07881495 3.09643187 4.16330494 3.625 6.25 C3.92664063 7.41015625 4.22828125 8.5703125 4.5390625 9.765625 C5.01655381 13.11615725 4.87978657 14.26822383 3 17 C2.67 17 2.34 17 2 17 C1.34 13.37 0.68 9.74 0 6 C0.66 6 1.32 6 2 6 C1.34 4.02 0.68 2.04 0 0 Z " fill="#B2B2B2" transform="translate(651,276)"/>
<path d="M0 0 C0.66 0.33 1.32 0.66 2 1 C2.4140625 3.50390625 2.4140625 3.50390625 2.625 6.5625 C2.69976563 7.57441406 2.77453125 8.58632813 2.8515625 9.62890625 C2.90054688 10.41136719 2.94953125 11.19382812 3 12 C1.0546875 11.25 1.0546875 11.25 -1 10 C-1.6796875 8.125 -1.6796875 8.125 -1.875 6 C-1.95492187 5.29875 -2.03484375 4.5975 -2.1171875 3.875 C-2 2 -2 2 0 0 Z " fill="#1F1F1F" transform="translate(642,275)"/>
<path d="M0 0 C1.32 0.99 2.64 1.98 4 3 C3.67 3.99 3.34 4.98 3 6 C2.67 6 2.34 6 2 6 C1.67 10.62 1.34 15.24 1 20 C0.67 20 0.34 20 0 20 C0 13.4 0 6.8 0 0 Z " fill="#B1B1B1" transform="translate(455,238)"/>
<path d="M0 0 C0.33 0 0.66 0 1 0 C2.51708428 11.52164009 2.51708428 11.52164009 0 17 C-0.99 16.67 -1.98 16.34 -3 16 C-2.5359375 14.824375 -2.5359375 14.824375 -2.0625 13.625 C-0.73664193 9.10148422 -0.35188915 4.68568186 0 0 Z " fill="#1F1F1F" transform="translate(465,231)"/>
<path d="M0 0 C0 3.3 0 6.6 0 10 C-1.7074998 8.71937515 -3.37373596 7.38232443 -5 6 C-5 5.34 -5 4.68 -5 4 C-4.34 4 -3.68 4 -3 4 C-3 3.01 -3 2.02 -3 1 C-1 0 -1 0 0 0 Z " fill="#B3B3B3" transform="translate(448,215)"/>
<path d="M0 0 C1.30660357 4.29727397 0.6596762 7.60215865 0 12 C-0.33 12 -0.66 12 -1 12 C-1 9.36 -1 6.72 -1 4 C-1.61875 4.495 -2.2375 4.99 -2.875 5.5 C-5 7 -5 7 -7 7 C-7.33 7.99 -7.66 8.98 -8 10 C-8 8.68 -8 7.36 -8 6 C-6.25 4.296875 -6.25 4.296875 -4 2.75 C-3.2575 2.22921875 -2.515 1.7084375 -1.75 1.171875 C-1.1725 0.78515625 -0.595 0.3984375 0 0 Z " fill="#ACACAC" transform="translate(486,187)"/>
<path d="M0 0 C3.36201317 1.38477825 4.76717391 2.73466064 6.5625 5.875 C8.23890024 8.72074115 9.94544255 11.40476954 12 14 C8.05860922 12.33248852 5.2107188 9.77289351 2 7 C2.33 5.68 2.66 4.36 3 3 C2.01 2.67 1.02 2.34 0 2 C0 1.34 0 0.68 0 0 Z " fill="#959595" transform="translate(433,161)"/>
<path d="M0 0 C0.99 0.33 1.98 0.66 3 1 C3.33 3.31 3.66 5.62 4 8 C4.66 8 5.32 8 6 8 C6 9.32 6 10.64 6 12 C3 11 3 11 2.05078125 9.2578125 C1.80714844 8.55398438 1.56351563 7.85015625 1.3125 7.125 C1.06113281 6.42632812 0.80976562 5.72765625 0.55078125 5.0078125 C0 3 0 3 0 0 Z " fill="#D0D0D0" transform="translate(546,273)"/>
<path d="M0 0 C0.99 0 1.98 0 3 0 C3 3.63 3 7.26 3 11 C2.34 9.68 1.68 8.36 1 7 C0.01 7.66 -0.98 8.32 -2 9 C-1.34 6.03 -0.68 3.06 0 0 Z " fill="#414141" transform="translate(562,274)"/>
<path d="M0 0 C0.66 0.33 1.32 0.66 2 1 C1.88529863 2.75070517 1.75780972 4.50057536 1.625 6.25 C1.55539062 7.22453125 1.48578125 8.1990625 1.4140625 9.203125 C1.01534751 11.89633189 0.36492937 13.66963279 -1 16 C-1.99 16 -2.98 16 -4 16 C-3.6875 14.0625 -3.6875 14.0625 -3 12 C-2.01 11.67 -1.02 11.34 0 11 C0 7.37 0 3.74 0 0 Z " fill="#919191" transform="translate(461,249)"/>
<path d="M0 0 C2.31 0 4.62 0 7 0 C7.33 1.65 7.66 3.3 8 5 C7.34 4.34 6.68 3.68 6 3 C3.39719432 3.32041397 3.39719432 3.32041397 1 4 C0.67 2.68 0.34 1.36 0 0 Z " fill="#212121" transform="translate(634,286)"/>
<path d="M0 0 C0.66 0 1.32 0 2 0 C2.33 2.31 2.66 4.62 3 7 C3.66 7 4.32 7 5 7 C5.33 6.34 5.66 5.68 6 5 C5.67 6.65 5.34 8.3 5 10 C2 9 2 9 0.8125 7.25 C-0.10819096 4.70039426 -0.14948718 2.69076919 0 0 Z " fill="#D7D7D7" transform="translate(523,273)"/>
<path d="M0 0 C0.66 0 1.32 0 2 0 C1.44894091 3.9492568 0.61064629 7.34920174 -1 11 C-1.99 11 -2.98 11 -4 11 C-4 10.01 -4 9.02 -4 8 C-3.34 8 -2.68 8 -2 8 C-1.855625 6.865625 -1.71125 5.73125 -1.5625 4.5625 C-1 1 -1 1 0 0 Z " fill="#CDCDCD" transform="translate(537,273)"/>
<path d="M0 0 C0.66 0 1.32 0 2 0 C3.28571429 8.57142857 3.28571429 8.57142857 2 12 C1.01 11.67 0.02 11.34 -1 11 C-0.67 8.36 -0.34 5.72 0 3 C-0.66 2.67 -1.32 2.34 -2 2 C-1.34 1.34 -0.68 0.68 0 0 Z " fill="#282828" transform="translate(481,206)"/>
<path d="M0 0 C0.33 0 0.66 0 1 0 C1 1.98 1 3.96 1 6 C-0.65 6.33 -2.3 6.66 -4 7 C-4 6.01 -4 5.02 -4 4 C-4.66 3.67 -5.32 3.34 -6 3 C-4.02 2.67 -2.04 2.34 0 2 C0 1.34 0 0.68 0 0 Z " fill="#777777" transform="translate(421,276)"/>
<path d="M0 0 C0.78375 0.04125 1.5675 0.0825 2.375 0.125 C1.4159375 0.7746875 1.4159375 0.7746875 0.4375 1.4375 C-1.89246003 3.03739177 -1.89246003 3.03739177 -2.625 6.125 C-0.975 6.125 0.675 6.125 2.375 6.125 C2.375 6.455 2.375 6.785 2.375 7.125 C0.395 7.125 -1.585 7.125 -3.625 7.125 C-3.955 7.785 -4.285 8.445 -4.625 9.125 C-4.75 5.75 -4.75 5.75 -4.625 2.125 C-2.625 0.125 -2.625 0.125 0 0 Z " fill="#F2F2F2" transform="translate(382.625,274.875)"/>
<path d="M0 0 C0.66 1.32 1.32 2.64 2 4 C-1.69541586 4.95024979 -4.30458414 4.95024979 -8 4 C-8 3.34 -8 2.68 -8 2 C-5.36 2 -2.72 2 0 2 C0 1.34 0 0.68 0 0 Z " fill="#2C2C2C" transform="translate(486,276)"/>
<path d="M0 0 C0.66 0.33 1.32 0.66 2 1 C-2.75 5.875 -2.75 5.875 -5 7 C-5.40729228 9.32156597 -5.74438677 11.6568787 -6 14 C-6.33 14 -6.66 14 -7 14 C-7.61658031 8.89119171 -7.61658031 8.89119171 -7 6 C-4.96073101 3.55696597 -2.63153386 1.7722575 0 0 Z " fill="#151515" transform="translate(482,231)"/>
<path d="M0 0 C2.76223278 2.76223278 2.57856291 5.20706617 3 9 C0.48916886 7.74458443 0.12874554 6.49936512 -1 4 C-1.99 4.99 -2.98 5.98 -4 7 C-4.66 6.67 -5.32 6.34 -6 6 C-4.02 4.02 -2.04 2.04 0 0 Z " fill="#A7A7A7" transform="translate(452,103)"/>
<path d="M0 0 C0.66 0 1.32 0 2 0 C2.33 1.65 2.66 3.3 3 5 C2.34 5 1.68 5 1 5 C1 6.65 1 8.3 1 10 C0.34 10 -0.32 10 -1 10 C-1.125 3.375 -1.125 3.375 0 0 Z " fill="#D8D8D8" transform="translate(650,277)"/>
<path d="M0 0 C0.66 0 1.32 0 2 0 C0.55218207 3.44428265 -1.27694609 5.36130962 -4.125 7.75 C-5.21167969 8.67039063 -5.21167969 8.67039063 -6.3203125 9.609375 C-6.87460937 10.06828125 -7.42890625 10.5271875 -8 11 C-8.33 10.01 -8.66 9.02 -9 8 C-8.43410156 7.50628906 -7.86820312 7.01257813 -7.28515625 6.50390625 C-6.55167969 5.86324219 -5.81820313 5.22257813 -5.0625 4.5625 C-4.33160156 3.92441406 -3.60070312 3.28632813 -2.84765625 2.62890625 C-1.87860647 1.77458541 -0.91348825 0.91348825 0 0 Z " fill="#959595" transform="translate(475,196)"/>
<path d="M0 0 C1.32 0.33 2.64 0.66 4 1 C4 3.31 4 5.62 4 8 C2.68 7.34 1.36 6.68 0 6 C0 4.02 0 2.04 0 0 Z " fill="#A8A8A8" transform="translate(458,194)"/>
<path d="M0 0 C0.33 0.66 0.66 1.32 1 2 C1.99 1.67 2.98 1.34 4 1 C2.5682479 6.01113235 0.01554307 7.94469549 -4 11 C-4 10.01 -4 9.02 -4 8 C-3.525625 7.54625 -3.05125 7.0925 -2.5625 6.625 C-0.55416651 4.53633317 -0.38130476 2.8216552 0 0 Z " fill="#7A7A7A" transform="translate(490,160)"/>
<path d="M0 0 C1.98 0 3.96 0 6 0 C6 1.32 6 2.64 6 4 C4.02 4 2.04 4 0 4 C0 2.68 0 1.36 0 0 Z " fill="#797979" transform="translate(464,271)"/>
<path d="M0 0 C2.31 0 4.62 0 7 0 C7.33 1.32 7.66 2.64 8 4 C5.69 3.67 3.38 3.34 1 3 C0.67 2.01 0.34 1.02 0 0 Z " fill="#C4C4C4" transform="translate(445,186)"/>
<path d="M0 0 C-1.6875 2.0625 -1.6875 2.0625 -4 4 C-6.75 3.75 -6.75 3.75 -9 3 C-9 2.34 -9 1.68 -9 1 C-2.25 -1.125 -2.25 -1.125 0 0 Z " fill="#D1D1D1" transform="translate(388,285)"/>
<path d="M0 0 C0.99 0 1.98 0 3 0 C3 0.99 3 1.98 3 3 C4.65 3 6.3 3 8 3 C6 5 6 5 2.875 5.125 C1.451875 5.063125 1.451875 5.063125 0 5 C0 3.35 0 1.7 0 0 Z " fill="#D1D1D1" transform="translate(414,280)"/>
<path d="M0 0 C0.99 0 1.98 0 3 0 C2.67 3.96 2.34 7.92 2 12 C1.67 12 1.34 12 1 12 C0.67 8.04 0.34 4.08 0 0 Z " fill="#B5B5B5" transform="translate(657,277)"/>
<path d="M0 0 C0 1.65 0 3.3 0 5 C-0.99 4.67 -1.98 4.34 -3 4 C-5.19038423 5.37168238 -5.19038423 5.37168238 -7 7 C-7 6.01 -7 5.02 -7 4 C-2.65714286 0 -2.65714286 0 0 0 Z " fill="#313131" transform="translate(478,198)"/>
<path d="M0 0 C2 1 2 1 2.875 3.25 C3 6 3 6 1.0625 8.8125 C0.381875 9.534375 -0.29875 10.25625 -1 11 C-1.125 3.375 -1.125 3.375 0 0 Z " fill="#CFCFCF" transform="translate(479,194)"/>
<path d="M0 0 C0 3 0 3 -1.25 4.75 C-3 6 -3 6 -5.125 5.8125 C-7 5 -7 5 -8 3 C-5.36 2.01 -2.72 1.02 0 0 Z " fill="#A3A3A3" transform="translate(468,186)"/>
<path d="M0 0 C2.31 0 4.62 0 7 0 C7.33 0.66 7.66 1.32 8 2 C5 4 5 4 2.875 3.8125 C2.25625 3.544375 1.6375 3.27625 1 3 C0.67 2.01 0.34 1.02 0 0 Z " fill="#202020" transform="translate(600,283)"/>
<path d="M0 0 C0.66 0 1.32 0 2 0 C2 1.65 2 3.3 2 5 C2.66 5 3.32 5 4 5 C4.33 4.34 4.66 3.68 5 3 C5 3.99 5 4.98 5 6 C3.35 6.66 1.7 7.32 0 8 C0 5.36 0 2.72 0 0 Z " fill="#C1C1C1" transform="translate(456,254)"/>
<path d="M0 0 C0.33 0 0.66 0 1 0 C2.12880057 3.31114834 3.21302675 6.58978257 4 10 C3.01 10 2.02 10 1 10 C-1.56687367 6.1496895 -0.83288724 4.41430237 0 0 Z " fill="#505050" transform="translate(440,192)"/>
<path d="M0 0 C0.99 0.33 1.98 0.66 3 1 C0.42215154 3.64752004 -1.91648098 5.94432065 -5 8 C-4.45773019 4.20411134 -2.79872437 2.52788007 0 0 Z " fill="#7C7C7C" transform="translate(474,180)"/>
<path d="M0 0 C0.99 0.33 1.98 0.66 3 1 C3 2.65 3 4.3 3 6 C1.68 5.67 0.36 5.34 -1 5 C-1 1 -1 1 0 0 Z " fill="#CACACA" transform="translate(439,177)"/>
<path d="M0 0 C0.99 0 1.98 0 3 0 C2.38461538 5.53846154 2.38461538 5.53846154 0.4375 7.875 C-0.036875 8.24625 -0.51125 8.6175 -1 9 C-1.125 2.25 -1.125 2.25 0 0 Z " fill="#CCCCCC" transform="translate(441,142)"/>
<path d="M0 0 C0.66 0 1.32 0 2 0 C1.42655063 2.86724686 1.1385485 3.8614515 -1 6 C-3.625 6.125 -3.625 6.125 -6 6 C-5.01 5.67 -4.02 5.34 -3 5 C-1.8499169 3.03327085 -1.8499169 3.03327085 -1 1 C-0.67 0.67 -0.34 0.34 0 0 Z " fill="#C5C5C5" transform="translate(352,287)"/>
<path d="M0 0 C0.99 0 1.98 0 3 0 C3 1.32 3 2.64 3 4 C3.66 4 4.32 4 5 4 C4.67 4.66 4.34 5.32 4 6 C2.35 6 0.7 6 -1 6 C-0.67 4.02 -0.34 2.04 0 0 Z " fill="#D7D7D7" transform="translate(571,270)"/>
<path d="M0 0 C0.66 0 1.32 0 2 0 C2 1.98 2 3.96 2 6 C0.02 6 -1.96 6 -4 6 C-3.67 5.01 -3.34 4.02 -3 3 C-2.34 3 -1.68 3 -1 3 C-0.67 2.01 -0.34 1.02 0 0 Z " fill="#626262" transform="translate(373,269)"/>
<path d="M0 0 C0.66 0 1.32 0 2 0 C1.34 2.97 0.68 5.94 0 9 C-0.99 8.34 -1.98 7.68 -3 7 C-1.125 1.125 -1.125 1.125 0 0 Z " fill="#C6C6C6" transform="translate(500,269)"/>
<path d="M0 0 C0 3 0 3 -1.75 4.82421875 C-2.4925 5.43910156 -3.235 6.05398437 -4 6.6875 C-4.7425 7.31011719 -5.485 7.93273437 -6.25 8.57421875 C-6.8275 9.04472656 -7.405 9.51523438 -8 10 C-8 7 -8 7 -6.25 5.17578125 C-5.5075 4.56089844 -4.765 3.94601563 -4 3.3125 C-3.2575 2.68988281 -2.515 2.06726563 -1.75 1.42578125 C-1.1725 0.95527344 -0.595 0.48476562 0 0 Z " fill="#8B8B8B" transform="translate(475,201)"/>
<path d="M0 0 C1.32 0.33 2.64 0.66 4 1 C4.33 2.32 4.66 3.64 5 5 C2.37886292 5 0.49064888 4.68707555 -2 4 C-2 3.34 -2 2.68 -2 2 C-1.34 2 -0.68 2 0 2 C0 1.34 0 0.68 0 0 Z " fill="#BCBCBC" transform="translate(434,187)"/>
<path d="M0 0 C1.17539996 0.92652701 2.34010577 1.86663387 3.5 2.8125 C4.1496875 3.33457031 4.799375 3.85664063 5.46875 4.39453125 C7 6 7 6 7 9 C5.82460004 8.07347299 4.65989423 7.13336613 3.5 6.1875 C2.52546875 5.40439453 2.52546875 5.40439453 1.53125 4.60546875 C0 3 0 3 0 0 Z " fill="#707070" transform="translate(452,180)"/>
<path d="M0 0 C0.66 0.66 1.32 1.32 2 2 C-0.64 4.31 -3.28 6.62 -6 9 C-6 8.01 -6 7.02 -6 6 C-5.34 6 -4.68 6 -4 6 C-3.67 5.01 -3.34 4.02 -3 3 C-2.34 3 -1.68 3 -1 3 C-0.67 2.01 -0.34 1.02 0 0 Z " fill="#AAAAAA" transform="translate(493,163)"/>
<path d="M0 0 C0.66 0.33 1.32 0.66 2 1 C2 1.66 2 2.32 2 3 C1.01 3.495 1.01 3.495 0 4 C0 5.32 0 6.64 0 8 C-1.32 7.67 -2.64 7.34 -4 7 C-2.79618552 4.50638429 -1.54571278 2.31856917 0 0 Z " fill="#B0B0B0" transform="translate(460,62)"/>
<path d="M0 0 C0.33 0 0.66 0 1 0 C1.125 5.75 1.125 5.75 0 8 C-0.99 7.67 -1.98 7.34 -3 7 C-3 5.68 -3 4.36 -3 3 C-2.01 3 -1.02 3 0 3 C0 2.01 0 1.02 0 0 Z " fill="#EDEDED" transform="translate(618,283)"/>
<path d="M0 0 C1.0326802 2.78823655 1.04509293 3.8677274 0.0625 6.75 C-0.288125 7.4925 -0.63875 8.235 -1 9 C-1.99 8.67 -2.98 8.34 -4 8 C-3.67 5.69 -3.34 3.38 -3 1 C-2.34 1.66 -1.68 2.32 -1 3 C-0.67 2.01 -0.34 1.02 0 0 Z " fill="#989898" transform="translate(368,275)"/>
<path d="M0 0 C1.32 0 2.64 0 4 0 C4 0.66 4 1.32 4 2 C5.32 2.66 6.64 3.32 8 4 C8 4.99 8 5.98 8 7 C3.8575633 5.61918777 2.67796901 3.40174442 0 0 Z " fill="#EAEAEA" transform="translate(465,276)"/>
<path d="M0 0 C0.33 1.32 0.66 2.64 1 4 C0.01 4.33 -0.98 4.66 -2 5 C-2.33 5.66 -2.66 6.32 -3 7 C-3 6.34 -3 5.68 -3 5 C-4.65 5.33 -6.3 5.66 -8 6 C-8 5.34 -8 4.68 -8 4 C-6.02 4 -4.04 4 -2 4 C-1.67 3.01 -1.34 2.02 -1 1 C-0.67 0.67 -0.34 0.34 0 0 Z " fill="#DBDBDB" transform="translate(472,271)"/>
<path d="M0 0 C0.66 0 1.32 0 2 0 C0.55746343 3.36591866 -1.33264727 5.51047079 -4 8 C-4 4.06830895 -2.60580385 2.83572772 0 0 Z " fill="#0F0F0F" transform="translate(470,237)"/>
<path d="M0 0 C1.32 0.66 2.64 1.32 4 2 C3.01 2.495 3.01 2.495 2 3 C2 3.99 2 4.98 2 6 C1.01 6.33 0.02 6.66 -1 7 C-0.67 4.69 -0.34 2.38 0 0 Z " fill="#CDCDCD" transform="translate(443,213)"/>
<path d="M0 0 C1.98 0.66 3.96 1.32 6 2 C6 2.99 6 3.98 6 5 C4.02 5.33 2.04 5.66 0 6 C0 4.02 0 2.04 0 0 Z " fill="#141414" transform="translate(502,188)"/>
<path d="M0 0 C0.99 0.33 1.98 0.66 3 1 C3 3.31 3 5.62 3 8 C2.01 8.33 1.02 8.66 0 9 C0 6.03 0 3.06 0 0 Z " fill="#2B2B2B" transform="translate(424,276)"/>
<path d="M0 0 C0.99 0.33 1.98 0.66 3 1 C3 3.64 3 6.28 3 9 C0.90250005 6.64031256 0.03094296 5.45383006 -0.1875 2.25 C-0.125625 1.5075 -0.06375 0.765 0 0 Z " fill="#CBCBCB" transform="translate(390,274)"/>
<path d="M0 0 C0.226875 0.639375 0.45375 1.27875 0.6875 1.9375 C1.85250896 4.27193661 1.85250896 4.27193661 4.625 4.75 C5.40875 4.8325 6.1925 4.915 7 5 C6.34 5.66 5.68 6.32 5 7 C2.375 6.625 2.375 6.625 0 6 C0 4.02 0 2.04 0 0 Z " fill="#B2B2B2" transform="translate(581,270)"/>
<path d="M0 0 C0.66 0 1.32 0 2 0 C1.74438677 2.3431213 1.40729228 4.67843403 1 7 C0.01 7.495 0.01 7.495 -1 8 C-1.04241723 5.66705225 -1.04092937 3.33297433 -1 1 C-0.67 0.67 -0.34 0.34 0 0 Z " fill="#DBDBDB" transform="translate(621,269)"/>
<path d="M0 0 C0.99 0.33 1.98 0.66 3 1 C3 2.32 3 3.64 3 5 C2.34 5 1.68 5 1 5 C0.67 5.66 0.34 6.32 0 7 C-0.38133299 5.0085944 -0.71325582 3.00720923 -1 1 C-0.67 0.67 -0.34 0.34 0 0 Z " fill="#BCBCBC" transform="translate(357,269)"/>
<path d="M0 0 C1.4606285 2.64738916 2 3.89448334 2 7 C1.01 7.495 1.01 7.495 0 8 C-0.66 8.99 -1.32 9.98 -2 11 C-1 3.57142857 -1 3.57142857 0 0 Z " fill="#3E3E3E" transform="translate(449,160)"/>
<path d="M0 0 C3 1 3 1 5 4 C4.67 4.99 4.34 5.98 4 7 C3.566875 6.54625 3.13375 6.0925 2.6875 5.625 C0.89201658 3.79975666 0.89201658 3.79975666 -2 2 C-1.34 1.34 -0.68 0.68 0 0 Z " fill="#717171" transform="translate(463,59)"/>
<path d="M0 0 C0.33 0 0.66 0 1 0 C1.125 5.75 1.125 5.75 0 8 C-0.99 8 -1.98 8 -3 8 C-3 7.01 -3 6.02 -3 5 C-2.34 5 -1.68 5 -1 5 C-0.67 3.35 -0.34 1.7 0 0 Z " fill="#DBDBDB" transform="translate(396,279)"/>
<path d="M0 0 C1.98 0.495 1.98 0.495 4 1 C4 1.99 4 2.98 4 4 C2.35 4 0.7 4 -1 4 C-0.67 2.68 -0.34 1.36 0 0 Z " fill="#202020" transform="translate(635,279)"/>
<path d="M0 0 C1.98 0.495 1.98 0.495 4 1 C4 1.99 4 2.98 4 4 C2.35 4 0.7 4 -1 4 C-0.67 2.68 -0.34 1.36 0 0 Z " fill="#393939" transform="translate(601,277)"/>
<path d="M0 0 C2.475 0.495 2.475 0.495 5 1 C5 1.66 5 2.32 5 3 C5.66 3.33 6.32 3.66 7 4 C4.69 4 2.38 4 0 4 C0 2.68 0 1.36 0 0 Z " fill="#5B5B5B" transform="translate(513,275)"/>
<path d="M0 0 C0.66 0 1.32 0 2 0 C1.25 6.75 1.25 6.75 -1 9 C-1.125 2.25 -1.125 2.25 0 0 Z " fill="#D6D6D6" transform="translate(404,274)"/>
<path d="M0 0 C2.475 0.99 2.475 0.99 5 2 C5 2.33 5 2.66 5 3 C4.195625 3.12375 3.39125 3.2475 2.5625 3.375 C1.2940625 3.684375 1.2940625 3.684375 0 4 C-0.33 4.66 -0.66 5.32 -1 6 C-1.66 5.01 -2.32 4.02 -3 3 C-2.01 2.67 -1.02 2.34 0 2 C0 1.34 0 0.68 0 0 Z " fill="#B2B2B2" transform="translate(446,183)"/>
<path d="M0 0 C0.99 0.66 1.98 1.32 3 2 C2.34 3.32 1.68 4.64 1 6 C0.67 5.34 0.34 4.68 0 4 C-0.66 4 -1.32 4 -2 4 C-2 3.01 -2 2.02 -2 1 C-1.34 0.67 -0.68 0.34 0 0 Z " fill="#C3C3C3" transform="translate(483,181)"/>
<path d="M0 0 C3.16115776 1.36983503 3.9927092 1.9890638 6 5 C4.35 5.33 2.7 5.66 1 6 C0.67 4.02 0.34 2.04 0 0 Z " fill="#A6A6A6" transform="translate(432,170)"/>
<path d="M0 0 C0 0.66 0 1.32 0 2 C-2.95664519 3.4783226 -5.74229737 3.06032783 -9 3 C-6.15236477 0.15236477 -3.96383452 0 0 0 Z " fill="#B0B0B0" transform="translate(521,280)"/>
<path d="M0 0 C0.66 0 1.32 0 2 0 C1.74438677 2.3431213 1.40729228 4.67843403 1 7 C0.01 7.495 0.01 7.495 -1 8 C-1.04241723 5.66705225 -1.04092937 3.33297433 -1 1 C-0.67 0.67 -0.34 0.34 0 0 Z " fill="#D8D8D8" transform="translate(560,274)"/>
<path d="M0 0 C0.99 0 1.98 0 3 0 C3.33 1.32 3.66 2.64 4 4 C3.34 4 2.68 4 2 4 C2 4.66 2 5.32 2 6 C1.34 6 0.68 6 0 6 C0 4.02 0 2.04 0 0 Z " fill="#CDCDCD" transform="translate(456,243)"/>
<path d="M0 0 C1.24546405 2.49092811 0.7767578 3.41080733 0 6 C0.99 6.33 1.98 6.66 3 7 C1.68 7.99 0.36 8.98 -1 10 C-1.02689216 8.52093108 -1.04634621 7.04172517 -1.0625 5.5625 C-1.07410156 4.73878906 -1.08570313 3.91507813 -1.09765625 3.06640625 C-1 1 -1 1 0 0 Z " fill="#B5B5B5" transform="translate(472,225)"/>
<path d="M0 0 C0.33 0 0.66 0 1 0 C1 2.97 1 5.94 1 9 C1.66 9 2.32 9 3 9 C2.67 9.99 2.34 10.98 2 12 C1.34 12 0.68 12 0 12 C0 8.04 0 4.08 0 0 Z " fill="#232323" transform="translate(477,166)"/>
<path d="M0 0 C1.98 0.99 1.98 0.99 4 2 C4 3.98 4 5.96 4 8 C2 6.8125 2 6.8125 0 5 C-0.25 2.3125 -0.25 2.3125 0 0 Z " fill="#B0B0B0" transform="translate(437,160)"/>
</svg>
